<?xml version="1.0" standalone="no"?>
<!DOCTYPE svg PUBLIC "-//W3C//DTD SVG 20010904//EN"
 "http://www.w3.org/TR/2001/REC-SVG-20010904/DTD/svg10.dtd">
<svg version="1.0" xmlns="http://www.w3.org/2000/svg"
 width="1080.000000pt" height="1080.000000pt" viewBox="0 0 1080.000000 1080.000000"
 preserveAspectRatio="xMidYMid meet">

<g transform="translate(0.000000,1080.000000) scale(0.100000,-0.100000)"
fill="#000000" stroke="none">
<path d="M237 10789 c-91 -21 -172 -87 -211 -169 -21 -45 -21 -47 -24 -1295
-2 -949 0 -1261 9 -1295 16 -61 71 -142 117 -173 129 -90 320 -59 412 66 62
85 60 37 60 1209 l0 1068 1083 0 1082 0 60 28 c109 52 169 146 169 267 0 121
-68 227 -178 277 l-51 23 -1245 2 c-706 0 -1261 -3 -1283 -8z"/>
<path d="M8030 10786 c-166 -45 -259 -212 -212 -381 17 -60 79 -134 142 -169
l55 -31 1092 -3 1093 -2 2 -1093 c3 -1046 4 -1093 22 -1127 62 -116 150 -173
269 -174 125 -1 223 61 276 174 l26 55 0 1260 c0 1218 -1 1262 -19 1310 -25
65 -94 137 -159 166 l-52 24 -1245 2 c-963 1 -1255 -1 -1290 -11z"/>
<path d="M5130 8389 c-903 -66 -1740 -393 -2450 -957 -465 -370 -870 -839
-1189 -1380 -71 -120 -257 -494 -280 -561 -33 -100 -5 -194 144 -486 690
-1354 1886 -2275 3282 -2529 277 -51 401 -61 768 -60 292 0 363 3 507 22 508
67 914 188 1368 408 465 226 845 499 1231 884 420 418 692 798 960 1335 123
249 140 303 121 393 -13 63 -170 388 -274 567 -500 861 -1185 1513 -2023 1925
-467 230 -913 361 -1425 420 -204 24 -558 33 -740 19z m560 -1822 c216 -56
393 -159 555 -321 144 -144 220 -266 289 -464 187 -537 -44 -1140 -546 -1424
-296 -167 -691 -200 -1004 -82 -266 100 -484 285 -629 532 -197 338 -206 793
-22 1146 172 332 483 559 862 630 124 24 372 15 495 -17z"/>
<path d="M191 2978 c-65 -25 -134 -90 -164 -156 l-22 -47 0 -1265 c0 -1217 1
-1267 19 -1314 39 -101 126 -168 241 -186 48 -7 450 -10 1280 -8 l1210 3 63
29 c113 52 176 148 176 271 1 154 -101 269 -262 295 -33 6 -496 10 -1094 10
l-1038 0 0 1070 c0 1046 0 1070 -20 1123 -60 159 -230 236 -389 175z"/>
<path d="M10420 2991 c-86 -28 -150 -82 -191 -161 l-24 -45 -3 -1087 -2 -1088
-1038 0 c-676 0 -1060 -4 -1102 -11 -155 -25 -253 -139 -253 -295 0 -155 99
-266 264 -294 45 -8 428 -10 1274 -8 l1210 3 55 26 c77 36 124 80 157 147 l28
57 0 1270 0 1270 -21 46 c-50 108 -141 170 -259 175 -38 2 -81 0 -95 -5z"/>
</g>
</svg>
