<?xml version="1.0" standalone="no"?>
<!DOCTYPE svg PUBLIC "-//W3C//DTD SVG 20010904//EN"
 "http://www.w3.org/TR/2001/REC-SVG-20010904/DTD/svg10.dtd">
<svg version="1.0" xmlns="http://www.w3.org/2000/svg"
 width="1080.000000pt" height="1080.000000pt" viewBox="0 0 1080.000000 1080.000000"
 preserveAspectRatio="xMidYMid meet">

<g transform="translate(0.000000,1080.000000) scale(0.100000,-0.100000)"
fill="#000000" stroke="none">
<path d="M5105 10793 c-254 -12 -692 -75 -955 -139 -822 -198 -1532 -553
-2204 -1102 -164 -134 -549 -516 -686 -681 -290 -350 -500 -671 -699 -1071
-332 -668 -517 -1364 -552 -2085 -47 -945 126 -1820 523 -2656 353 -742 922
-1440 1593 -1954 132 -102 439 -305 595 -395 149 -86 394 -206 580 -285 1016
-432 2160 -537 3258 -299 552 120 1099 335 1587 625 594 352 1106 806 1540
1364 148 190 349 501 470 725 550 1023 755 2205 585 3360 -89 598 -291 1217
-562 1714 -400 736 -895 1318 -1528 1795 -1023 772 -2240 1144 -3545 1084z
m-1765 -1507 c404 -66 730 -362 837 -762 23 -88 26 -118 27 -264 0 -129 -3
-179 -17 -230 -109 -395 -371 -661 -754 -767 -88 -24 -115 -27 -258 -27 -143
0 -170 3 -260 27 -414 113 -714 458 -766 881 -83 676 517 1252 1191 1142z
m2426 -2207 c92 -17 162 -55 235 -128 70 -71 109 -140 128 -229 39 -184 -39
-373 -194 -476 -113 -76 -49 -70 -945 -76 l-805 -5 -5 -1810 c-5 -1726 -6
-1813 -23 -1865 -59 -175 -193 -333 -347 -408 -145 -71 -151 -72 -636 -72
-420 0 -434 1 -510 23 -116 33 -207 88 -296 177 -61 63 -85 96 -122 171 -77
161 -76 144 -76 1028 l0 780 -77 40 c-141 74 -243 175 -307 306 -74 150 -70
94 -73 1045 -3 572 0 878 7 924 22 140 92 275 196 380 99 99 198 153 344 187
70 16 190 17 1761 18 1180 1 1703 -2 1745 -10z m1456 -692 c75 -37 134 -98
172 -177 30 -64 31 -69 34 -243 4 -155 6 -179 21 -183 49 -15 214 -81 262
-105 l56 -28 114 115 c129 130 194 170 294 180 72 8 166 -14 222 -50 21 -13
122 -109 224 -212 212 -215 231 -246 233 -379 1 -111 -23 -163 -129 -275 -49
-52 -107 -114 -128 -136 l-39 -41 37 -74 c21 -40 52 -114 70 -164 l33 -90 183
-5 c176 -5 186 -6 241 -33 75 -37 134 -98 172 -177 l31 -65 0 -285 0 -285 -29
-62 c-35 -76 -104 -144 -184 -181 -53 -25 -68 -27 -236 -32 l-178 -5 -34 -92
c-18 -51 -49 -125 -68 -164 l-36 -72 79 -86 c44 -47 96 -102 116 -121 68 -65
114 -195 100 -283 -20 -116 -36 -141 -239 -345 -154 -156 -203 -199 -251 -222
-102 -50 -216 -49 -318 2 -22 11 -94 72 -160 137 l-122 118 -75 -34 c-41 -19
-115 -50 -165 -68 l-90 -33 -5 -178 c-5 -175 -6 -180 -37 -246 -37 -79 -94
-137 -171 -175 l-57 -28 -295 0 -295 0 -67 33 c-77 38 -130 92 -167 171 -25
53 -26 66 -29 237 l-4 182 -111 42 c-62 24 -139 56 -171 72 l-59 30 -121 -121
c-133 -132 -191 -168 -291 -178 -80 -8 -172 19 -244 73 -31 23 -127 114 -212
201 -193 198 -214 233 -214 368 0 131 23 174 173 328 l119 122 -43 90 c-24 50
-55 124 -69 167 l-26 76 -182 4 c-174 3 -185 5 -237 30 -84 41 -135 90 -172
166 l-33 67 0 300 0 300 34 63 c41 75 94 125 170 161 53 24 66 26 238 29 l182
4 22 66 c12 37 43 113 69 168 l48 102 -115 113 c-149 149 -178 203 -178 334 0
135 15 160 242 392 204 209 243 236 354 249 60 7 155 -9 204 -33 17 -9 87 -71
156 -140 l126 -124 82 40 c46 22 123 54 171 72 l88 31 4 187 c3 180 4 188 31
238 36 69 80 118 135 150 82 49 115 53 412 50 l275 -2 57 -28z"/>
<path d="M3016 8919 c-250 -61 -448 -267 -500 -521 -30 -146 -13 -285 54 -423
71 -148 164 -240 315 -316 326 -162 732 -23 894 304 51 103 71 188 71 302 0
115 -20 199 -72 305 -70 140 -217 272 -368 328 -119 44 -267 52 -394 21z"/>
<path d="M2331 6719 c-58 -11 -145 -65 -182 -111 -16 -20 -39 -58 -52 -85
l-22 -48 0 -855 0 -855 27 -57 c30 -64 96 -134 148 -156 19 -8 66 -23 103 -33
78 -20 127 -50 154 -94 17 -28 18 -78 23 -925 l5 -895 28 -57 c35 -71 106
-137 178 -163 50 -19 79 -20 434 -20 452 0 452 0 551 99 104 104 94 -105 94
2015 0 1240 4 1871 11 1901 11 49 47 102 82 122 17 10 221 14 915 18 l894 5
29 33 c39 44 39 90 0 134 l-29 33 -1674 1 c-920 1 -1693 -2 -1717 -7z"/>
<path d="M6797 6063 l-139 -4 8 -212 c6 -200 5 -216 -13 -258 -31 -67 -67 -95
-158 -119 -160 -43 -279 -93 -454 -190 -57 -32 -116 -39 -168 -20 -15 6 -101
84 -190 173 l-163 162 -28 -30 c-16 -17 -80 -83 -142 -148 l-114 -118 156
-149 c85 -82 163 -165 172 -184 27 -57 21 -116 -19 -188 -93 -167 -146 -297
-195 -476 -15 -56 -69 -115 -118 -130 -25 -8 -120 -12 -257 -12 l-218 0 6
-152 c4 -83 7 -173 7 -200 l0 -48 220 0 c231 0 257 -4 306 -48 31 -27 50 -68
73 -159 28 -109 90 -258 152 -366 53 -92 66 -140 54 -204 -6 -31 -34 -65 -173
-205 -91 -92 -164 -169 -161 -170 2 -2 68 -65 146 -142 l141 -138 153 157 c84
86 165 163 180 171 16 8 52 14 80 14 45 0 67 -8 148 -54 122 -67 240 -117 361
-151 139 -39 178 -66 207 -140 7 -19 12 -108 12 -254 l1 -224 107 6 c58 4 148
7 200 7 l93 0 0 225 c0 205 2 229 20 265 23 45 65 78 118 92 160 41 335 114
491 203 48 27 118 33 168 14 15 -6 100 -82 188 -170 l161 -159 137 138 c75 75
137 142 137 147 0 6 -68 78 -151 160 -83 83 -157 163 -166 179 -8 16 -16 51
-16 76 -1 48 0 51 91 220 47 88 100 227 136 361 19 69 48 106 100 130 36 16
69 19 264 19 l222 0 0 200 0 200 -222 0 c-205 0 -225 2 -266 21 -53 26 -85 73
-107 156 -28 112 -76 236 -127 333 -28 52 -60 113 -71 134 -23 44 -26 119 -7
157 7 13 84 96 172 185 l160 161 -148 142 -148 141 -152 -158 c-118 -123 -161
-161 -192 -171 -64 -22 -122 -9 -220 46 -114 66 -231 114 -367 154 -125 36
-157 55 -185 109 -18 36 -20 60 -20 270 l0 230 -67 -2 c-38 -1 -130 -4 -206
-5z m309 -954 c488 -106 852 -495 925 -989 18 -127 7 -332 -26 -455 -33 -127
-115 -297 -192 -400 -71 -95 -195 -215 -282 -275 -93 -62 -252 -135 -366 -167
-94 -26 -111 -28 -300 -28 -189 0 -205 2 -299 28 -205 59 -387 165 -531 311
-212 215 -323 468 -342 781 -18 312 114 646 347 876 171 169 362 270 610 323
105 23 341 20 456 -5z"/>
<path d="M6767 4769 c-108 -14 -250 -66 -336 -122 -441 -288 -506 -891 -136
-1262 108 -109 235 -181 390 -220 110 -28 286 -24 398 9 258 77 453 253 546
495 38 99 51 173 51 292 0 168 -41 308 -130 442 -53 80 -158 187 -237 240
-146 98 -371 150 -546 126z"/>
</g>
</svg>
