<?xml version="1.0" standalone="no"?>
<!DOCTYPE svg PUBLIC "-//W3C//DTD SVG 20010904//EN"
 "http://www.w3.org/TR/2001/REC-SVG-20010904/DTD/svg10.dtd">
<svg version="1.0" xmlns="http://www.w3.org/2000/svg"
 width="1080.000000pt" height="1080.000000pt" viewBox="0 0 1080.000000 1080.000000"
 preserveAspectRatio="xMidYMid meet">

<g transform="translate(0.000000,1080.000000) scale(0.100000,-0.100000)"
fill="#000000" stroke="none">
<path d="M5880 10793 c-893 -40 -1699 -305 -2346 -769 -584 -419 -1024 -979
-1314 -1674 -194 -464 -320 -1089 -320 -1583 l0 -110 -685 -1256 c-504 -925
-687 -1271 -696 -1310 -36 -169 68 -351 228 -401 62 -19 92 -20 608 -20 l543
0 5 -437 c5 -483 14 -582 79 -843 79 -321 223 -624 401 -845 89 -110 254 -267
367 -347 107 -76 312 -182 440 -226 190 -66 454 -112 641 -112 l99 0 0 -387
c0 -370 1 -390 20 -421 11 -18 32 -37 46 -42 17 -7 729 -9 2011 -8 l1985 3 29
33 29 32 0 433 c0 428 6 538 35 712 32 184 143 457 281 687 123 206 193 306
593 853 529 723 814 1240 1021 1854 225 668 321 1349 307 2171 -9 510 -48 831
-148 1235 -134 537 -377 1042 -695 1440 -337 423 -812 777 -1334 995 -261 109
-654 222 -937 270 -372 62 -888 92 -1293 73z m470 -1198 c273 -13 569 -81 858
-196 698 -279 1282 -849 1570 -1532 150 -356 218 -664 229 -1042 5 -198 5
-200 -18 -234 -53 -77 -126 -99 -201 -62 -73 35 -84 67 -92 261 -17 415 -99
749 -269 1085 -223 444 -593 835 -1017 1077 -280 159 -604 269 -925 315 -158
22 -510 25 -655 4 -906 -126 -1641 -667 -2015 -1481 -146 -320 -213 -615 -222
-977 -8 -297 19 -524 92 -784 213 -758 792 -1389 1537 -1678 589 -228 1274
-227 1846 3 337 136 600 307 856 556 118 115 236 246 236 262 0 3 -64 -12
-142 -33 -167 -45 -211 -48 -259 -16 -49 32 -83 105 -74 158 8 46 51 101 92
118 57 22 717 191 749 191 18 0 43 -4 56 -9 29 -11 78 -59 89 -88 11 -29 100
-705 101 -759 0 -158 -220 -215 -291 -75 -11 22 -26 92 -37 179 -9 78 -20 142
-24 142 -3 0 -39 -41 -80 -91 -89 -109 -282 -298 -400 -392 -730 -585 -1703
-780 -2595 -521 -688 200 -1284 657 -1655 1267 -207 343 -329 679 -391 1087
-30 195 -33 591 -6 775 68 456 219 858 453 1210 462 694 1193 1153 2014 1265
102 14 343 28 420 23 30 -1 107 -5 170 -8z m-7 -1060 c250 -16 591 -136 817
-288 140 -93 326 -262 421 -382 123 -156 236 -364 299 -551 150 -450 127 -912
-66 -1336 -175 -383 -484 -699 -859 -879 -263 -126 -499 -179 -805 -179 -851
0 -1597 615 -1762 1452 l-22 110 -25 -29 c-15 -16 -54 -63 -88 -106 -74 -90
-98 -108 -157 -114 -90 -11 -157 49 -164 146 -5 69 -20 46 267 409 228 289
251 312 320 312 18 0 46 -6 64 -14 34 -15 556 -535 577 -575 7 -13 12 -46 12
-73 0 -110 -106 -186 -209 -148 -15 6 -85 68 -155 138 -144 142 -142 143 -109
-9 94 -421 355 -779 726 -993 248 -143 569 -213 851 -187 505 46 920 303 1178
730 255 423 274 982 49 1434 -207 416 -604 712 -1078 804 -137 26 -407 24
-543 -5 -222 -48 -390 -118 -568 -238 -110 -75 -144 -84 -209 -59 -84 32 -122
117 -90 201 14 37 31 54 103 106 258 184 599 305 917 327 108 7 150 7 308 -4z"/>
</g>
</svg>
