<?xml version="1.0" encoding="UTF-8"?>
<svg version="1.1" xmlns="http://www.w3.org/2000/svg" width="1080" height="1080">
<path d="M0 0 C155.1 0 310.2 0 470 0 C470 60.72 470 121.44 470 184 C314.9 184 159.8 184 0 184 C-0.33 134.5 -0.66 85 -1 34 C-10.57 48.19 -20.14 62.38 -30 77 C-33.04347656 80.88910156 -36.08695312 84.77820313 -39.22265625 88.78515625 C-48.41843291 102.99511021 -46.91506384 119.54273548 -46.49353027 135.88287354 C-46.38222021 140.95790906 -46.38602704 146.03413213 -46.36948395 151.11019135 C-46.3322372 158.74445614 -46.1532394 166.36324647 -46 174 C-58.87 174 -71.74 174 -85 174 C-84.67322266 166.52279297 -84.67322266 166.52279297 -84.33984375 158.89453125 C-82.12110308 109.87833279 -82.12110308 109.87833279 -105.36787415 68.45068359 C-112.85732525 60.21636114 -118.74153233 50.8953925 -124.82824707 41.60693359 C-127.85795557 37.00434777 -130.9559242 32.44829248 -134.046875 27.88671875 C-137.03326213 23.47655258 -139.99766819 19.05379108 -142.87207031 14.56958008 C-143.28241516 13.93047195 -143.69276001 13.29136383 -144.11553955 12.63288879 C-145 11 -145 11 -145 9 C-104.2458584 4.74612443 -104.2458584 4.74612443 -95.39453125 11.18115234 C-89.79146816 16.97522895 -86.69166768 23.99570303 -83.62890625 31.36767578 C-80.94283563 37.35738781 -77.25726322 42.58365005 -73.5625 48 C-72.33174646 49.89395913 -71.10361895 51.78962901 -69.87890625 53.6875 C-68.34122278 56.06341174 -67.00415392 57.99584608 -65 60 C-64.68885254 59.50298584 -64.37770508 59.00597168 -64.05712891 58.49389648 C-51.06863905 37.77189295 -51.06863905 37.77189295 -46.67285156 31.59912109 C-44.32916102 28.26121998 -42.56505279 25.0910296 -41.05859375 21.29296875 C-38.84988643 16.25207052 -36.89082101 11.86679619 -32 9 C-21.53935778 6.86240892 -10.5467727 7.97020555 0 9 C0 6.03 0 3.06 0 0 Z " fill="#FD5656" transform="translate(469,416)"/>
<path d="M0 0 C0 -1.32 0 -2.64 0 -4 C38.28 -4 76.56 -4 116 -4 C116 6.89 116 17.78 116 29 C103.13 29 90.26 29 77 29 C77 72.23 77 115.46 77 160 C64.46 160 51.92 160 39 160 C39 116.77 39 73.54 39 29 C26.79 29 14.58 29 2 29 C1.01 31.97 0.02 34.94 -1 38 C-4.6062794 36.571966 -8.17987926 35.0783846 -11.75 33.5625 C-13.83319133 32.70798705 -15.91651592 31.85379889 -18 31 C-18.7321875 30.67257812 -19.464375 30.34515625 -20.21875 30.0078125 C-25.1359531 28.02201894 -29.92220312 27.69490918 -35.1875 27.625 C-36.20408691 27.60409302 -36.20408691 27.60409302 -37.24121094 27.58276367 C-43.06751124 27.63782321 -47.00917741 29.27112775 -51.375 33.0625 C-53.78946217 37.42710468 -54.1911695 41.14369358 -53 46 C-47.34081299 54.81113927 -33.34370436 59.02262878 -24.125 63.2265625 C-14.98093874 67.42071324 -6.81212014 71.57456551 1 78 C1.99193359 78.75023437 1.99193359 78.75023437 3.00390625 79.515625 C7.80088788 83.28690214 10.82406277 87.83787293 14 93 C14.99 94.485 14.99 94.485 16 96 C20.2513088 109.35750727 18.55336027 122.9947903 12.83203125 135.56640625 C5.8115257 148.99397512 -5.1570379 154.75710179 -18.875 160.125 C-46.53443201 167.86964096 -72.3167847 161.82861803 -96.74633789 148.12231445 C-99.43086872 146.58493981 -101.80241587 145.19758413 -104 143 C-104.33 148.61 -104.66 154.22 -105 160 C-136.02 160 -167.04 160 -199 160 C-199 105.88 -199 51.76 -199 -4 C-167.98 -4 -136.96 -4 -105 -4 C-105 6.89 -105 17.78 -105 29 C-123.48 29 -141.96 29 -161 29 C-161 39.56 -161 50.12 -161 61 C-143.18 61 -125.36 61 -107 61 C-107 71.89 -107 82.78 -107 94 C-124.82 94 -142.64 94 -161 94 C-161 104.89 -161 115.78 -161 127 C-142.19 127 -123.38 127 -104 127 C-103.505 131.455 -103.505 131.455 -103 136 C-102.56131592 135.24267578 -102.12263184 134.48535156 -101.6706543 133.70507812 C-100.04129981 130.90438947 -98.40216358 128.10974535 -96.75610352 125.31884766 C-96.04507554 124.10862184 -95.33802111 122.89605249 -94.63500977 121.68115234 C-93.62517452 119.93760313 -92.59991364 118.20301673 -91.57421875 116.46875 C-90.96151123 115.42138672 -90.34880371 114.37402344 -89.7175293 113.29492188 C-89.15074463 112.53759766 -88.58395996 111.78027344 -88 111 C-84.35102986 111 -83.69840808 111.79636443 -80.875 114 C-76.18792711 117.39743449 -71.35071383 119.93625937 -66.125 122.375 C-65.38749512 122.72046875 -64.64999023 123.0659375 -63.89013672 123.421875 C-57.48462855 126.3554716 -52.27295736 127.22643435 -45.25 127.3125 C-44.4765625 127.34150391 -43.703125 127.37050781 -42.90625 127.40039062 C-37.13713977 127.46330877 -32.80922827 126.24601803 -28 123 C-24.92084742 119.68991097 -23.72211403 116.99952288 -23.375 112.5625 C-23.61388431 108.24810457 -24.86178363 105.73655762 -27.93334961 102.72143555 C-36.26949833 95.77776341 -47.68285821 91.65690897 -57.41601562 87.03125 C-71.77415506 80.00907667 -83.91214187 70.12819682 -90 55 C-93.35242247 43.28850695 -91.83301504 29.54656254 -86 19 C-78.21642604 6.68230528 -65.9502131 -2.35212656 -51.9453125 -6.30859375 C-34.66593289 -9.8709303 -16.07787525 -6.58490941 0 0 Z " fill="#262325" transform="translate(821,430)"/>
<path d="M0 0 C40.7541416 -4.25387557 40.7541416 -4.25387557 49.60546875 2.18115234 C55.20853184 7.97522895 58.30833232 14.99570303 61.37109375 22.36767578 C64.05716437 28.35738781 67.74273678 33.58365005 71.4375 39 C72.66825354 40.89395913 73.89638105 42.78962901 75.12109375 44.6875 C76.65877722 47.06341174 77.99584608 48.99584608 80 51 C80.31114746 50.50298584 80.62229492 50.00597168 80.94287109 49.49389648 C93.93136095 28.77189295 93.93136095 28.77189295 98.32714844 22.59912109 C100.67083898 19.26121998 102.43494721 16.0910296 103.94140625 12.29296875 C106.11446743 7.28387858 108.28555798 2.99935523 113 0 C121.04623503 -2.06666538 129.55085011 -1.08632908 137.75205994 -0.45036316 C143.91204789 0.00783446 150.01328296 0.02302738 156.1875 -0.0625 C159.04075865 -0.08047668 161.89398939 -0.09321655 164.74728394 -0.10394287 C166.61407315 -0.117906 168.4808134 -0.14530879 170.34719849 -0.18658447 C185.08858983 -0.46885695 185.08858983 -0.46885695 189.53491211 2.94799805 C191.38570668 5.54409267 192.68510073 8.09940534 194 11 C195.03675821 12.65230799 196.09815679 14.28941077 197.18359375 15.91015625 C198.27041758 17.62622014 199.3549626 19.34372889 200.4375 21.0625 C201.66763397 23.00542033 202.89811629 24.94812015 204.12890625 26.890625 C204.76328613 27.89287109 205.39766602 28.89511719 206.05126953 29.92773438 C209.31038542 35.0658845 212.59277366 40.18909332 215.875 45.3125 C217.22006365 47.41275301 218.56511565 49.51301348 219.91015625 51.61328125 C220.58191895 52.66209473 221.25368164 53.7109082 221.94580078 54.79150391 C224.02635707 58.04116766 226.10522139 61.29190786 228.18359375 64.54296875 C234.69843654 74.7319288 241.21367504 84.91992349 247.81567383 95.05273438 C250.89494182 99.78988364 250.89494182 99.78988364 252 102 C252.33 68.67 252.66 35.34 253 1 C265.21 1 277.42 1 290 1 C290 55.12 290 109.24 290 165 C277.46 165 264.92 165 252 165 C243.78364825 156.15697736 243.78364825 156.15697736 242.3359375 151.79296875 C239.8391241 145.2132238 236.14130084 139.70738293 232.25 133.875 C230.87594978 131.73971354 229.50618909 129.60166098 228.140625 127.4609375 C227.45548828 126.39198242 226.77035156 125.32302734 226.06445312 124.22167969 C222.70727075 118.98263302 219.35383456 113.74119014 216 108.5 C215.02353516 106.97451538 215.02353516 106.97451538 214.02734375 105.41821289 C210.91433179 100.55489921 207.80210294 95.69108918 204.69250488 90.82559204 C203.58945497 89.09975815 202.48616942 87.37407513 201.3828125 85.6484375 C199.99692609 83.48076901 198.6114843 81.31281616 197.2265625 79.14453125 C196.60007812 78.16484375 195.97359375 77.18515625 195.328125 76.17578125 C194.7805957 75.31895752 194.23306641 74.46213379 193.66894531 73.5793457 C191.80687707 70.70152959 189.90134558 67.85201836 188 65 C187.67 98 187.34 131 187 165 C174.46 165 161.92 165 149 165 C148.67 116.49 148.34 67.98 148 18 C144.7 23.28 141.4 28.56 138 34 C135.68543093 37.50965922 133.36219851 41.00279179 130.99609375 44.4765625 C130.38790298 45.37514984 129.77971222 46.27373718 129.15309143 47.19955444 C127.25056745 50.00985934 125.34437033 52.81764284 123.4375 55.625 C121.52749838 58.43979042 119.61839968 61.25518124 117.7111969 64.0718689 C116.53740688 65.80514931 115.36206113 67.5373779 114.18467712 69.26821899 C113.06325302 70.92316996 111.95437998 72.58668493 110.85725403 74.25784302 C109.50166503 76.2593128 108.07446173 78.21280848 106.60795593 80.13449097 C99.66732116 89.50089719 98.71326678 97.09714856 98.90234375 108.5546875 C98.89667538 110.19379451 98.88704428 111.83289208 98.87367249 113.47195435 C98.84930018 117.73700644 98.87789284 122.00002997 98.91845703 126.26489258 C98.95598043 131.40800342 98.92606949 136.5511331 98.90778351 141.69429016 C98.88754799 149.46406594 98.95164876 157.2289894 99 165 C86.13 165 73.26 165 60 165 C60.32677734 157.52279297 60.32677734 157.52279297 60.66015625 149.89453125 C62.87889692 100.87833279 62.87889692 100.87833279 39.63212585 59.45068359 C32.14267475 51.21636114 26.25846767 41.8953925 20.17175293 32.60693359 C17.14204443 28.00434777 14.0440758 23.44829248 10.953125 18.88671875 C7.96673787 14.47655258 5.00233181 10.05379108 2.12792969 5.56958008 C1.51241241 4.61091789 1.51241241 4.61091789 0.88446045 3.63288879 C0 2 0 2 0 0 Z " fill="#242325" transform="translate(324,425)"/>
<path d="M0 0 C0.70382812 0.61230469 1.40765625 1.22460938 2.1328125 1.85546875 C17.92974597 16.38245267 25.9741164 38.43250795 26.97607422 59.50024414 C27.62492157 84.71628954 19.90408866 106.6109025 2.84375 125.37109375 C-12.01404741 140.88284351 -31.19945386 148.89879321 -52.53588867 149.47241211 C-64.21931432 149.56716752 -74.88841075 148.63979626 -86 145 C-87.58748047 144.49146484 -87.58748047 144.49146484 -89.20703125 143.97265625 C-108.79147855 136.76003542 -123.71767158 120.64782773 -132.4375 102.0625 C-134.19509828 98.10164462 -135.67783071 94.1263981 -137 90 C-137.04487549 90.64437012 -137.08975098 91.28874023 -137.13598633 91.95263672 C-137.34986224 94.92772257 -137.58108522 97.90122898 -137.8125 100.875 C-137.91788086 102.39480469 -137.91788086 102.39480469 -138.02539062 103.9453125 C-139.032923 116.51931655 -142.23791402 128.40006711 -152 137 C-152.50144531 137.49242187 -153.00289063 137.98484375 -153.51953125 138.4921875 C-164.66158193 148.98189329 -180.34485407 149.59159826 -194.8515625 149.3125 C-208.17354154 148.72926852 -219.21549192 142.75455986 -229 134 C-226.96150996 126.80613443 -224.51843632 119.84290835 -221.8125 112.875 C-221.44447266 111.91851563 -221.07644531 110.96203125 -220.69726562 109.9765625 C-219.80144555 107.64975711 -218.90232227 105.32428979 -218 103 C-213.66820385 103 -213.09086051 103.35820825 -209.8125 105.8125 C-203.63657107 110.06097398 -198.3616982 112.67276535 -190.75 111.5 C-186.25057285 110.3420079 -183.76719675 108.85730456 -181 105 C-177.92697164 98.36738022 -177.55777184 92.69465049 -177.56762695 85.44335938 C-177.5574353 84.31077698 -177.54724365 83.17819458 -177.53674316 82.0112915 C-177.50668486 78.28872687 -177.49735787 74.5664199 -177.48828125 70.84375 C-177.47142932 68.25442657 -177.45327839 65.6651113 -177.43388367 63.07580566 C-177.39127672 56.97037082 -177.36171626 50.86500209 -177.33856028 44.75946665 C-177.31144682 37.80407503 -177.26753933 30.84882049 -177.22227156 23.89352703 C-177.12958965 9.59574814 -177.06005034 -4.70204771 -177 -19 C-164.13 -19 -151.26 -19 -138 -19 C-137.67 -0.19 -137.34 18.62 -137 38 C-134.03 30.575 -134.03 30.575 -131 23 C-118.74590793 2.4380489 -101.45631821 -12.87389242 -78.1875 -19.4375 C-50.14392753 -26.03942435 -21.32834515 -19.68501364 0 0 Z M-86.2578125 27.5859375 C-97.09427598 41.86127869 -100.22502636 57.03083481 -98.10986328 74.64550781 C-96.8430696 83.47946687 -93.63667186 92.00275217 -88 99 C-87.34 99 -86.68 99 -86 99 C-85.67 99.99 -85.34 100.98 -85 102 C-74.97767151 110.90873643 -64.48255973 112.84938033 -51.4921875 112.4140625 C-43.22441114 111.8563296 -34.63210607 108.84509996 -28.6171875 102.96484375 C-16.94935946 88.78871452 -13.41309586 72.97201194 -15 55 C-16.6377666 43.26492859 -21.85156236 30.8365202 -31 23 C-48.11475022 11.36508635 -71.97650693 11.22914808 -86.2578125 27.5859375 Z " fill="#232224" transform="translate(315,444)"/>
<path d="M0 0 C8.91 0 17.82 0 27 0 C27 1.65 27 3.3 27 5 C20.07 5 13.14 5 6 5 C6 8.3 6 11.6 6 15 C12.27 15 18.54 15 25 15 C25 16.32 25 17.64 25 19 C18.73 19 12.46 19 6 19 C6 22.63 6 26.26 6 30 C12.93 30 19.86 30 27 30 C27 31.65 27 33.3 27 35 C18.09 35 9.18 35 0 35 C0 23.45 0 11.9 0 0 Z " fill="#000000" transform="translate(864,616)"/>
<path d="M0 0 C3.34868948 2.4674554 4.86362305 5.02268069 6 9 C6 10.98 6 12.96 6 15 C0.06 15 -5.88 15 -12 15 C-10.54711014 19.5841963 -10.54711014 19.5841963 -9 21 C-5.54187831 21.33338596 -5.54187831 21.33338596 -2 21 C-1.34 20.01 -0.68 19.02 0 18 C3.125 17.8125 3.125 17.8125 6 18 C4.64712489 22.42759127 3.04076435 24.67870984 -1 27 C-5.2960269 27.70171038 -8.84771243 27.47594486 -12.875 25.8125 C-16.08952098 23.07070269 -17.7609524 20.95822556 -18.28515625 16.6640625 C-18.4675495 11.38258833 -18.06025382 7.48108595 -15 3 C-10.39089859 -1.17699815 -5.92533339 -1.54417779 0 0 Z M-9.3125 4.5625 C-11.574475 6.1888038 -11.574475 6.1888038 -12 11 C-7.71 11 -3.42 11 1 11 C-0.39619016 5.90397866 -0.39619016 5.90397866 -3.875 4.5625 C-6.87617112 3.8046533 -6.87617112 3.8046533 -9.3125 4.5625 Z " fill="#000000" transform="translate(942,625)"/>
<path d="M0 0 C2.13018952 1.58046319 2.82385265 2.6477053 4 5 C4.08400529 6.59447464 4.10727467 8.19240545 4.09765625 9.7890625 C4.09443359 10.73007812 4.09121094 11.67109375 4.08789062 12.640625 C4.07951172 13.62546875 4.07113281 14.6103125 4.0625 15.625 C4.05798828 16.61757813 4.05347656 17.61015625 4.04882812 18.6328125 C4.03702145 21.0886016 4.020554 23.54427104 4 26 C2.35 26 0.7 26 -1 26 C-1.06058594 24.80761719 -1.12117187 23.61523438 -1.18359375 22.38671875 C-1.26801149 20.82030075 -1.35265887 19.25389512 -1.4375 17.6875 C-1.47681641 16.90181641 -1.51613281 16.11613281 -1.55664062 15.30664062 C-1.59853516 14.54931641 -1.64042969 13.79199219 -1.68359375 13.01171875 C-1.72025146 12.31522217 -1.75690918 11.61872559 -1.79467773 10.90112305 C-1.95581153 8.7783428 -1.95581153 8.7783428 -3 6 C-5.94389782 4.82244087 -6.89953913 4.96651304 -10 6 C-11.94505216 10.40613857 -12.35474762 14.60054135 -12.625 19.375 C-12.69976563 20.62023437 -12.77453125 21.86546875 -12.8515625 23.1484375 C-12.90054688 24.08945312 -12.94953125 25.03046875 -13 26 C-14.65 26 -16.3 26 -18 26 C-18 17.42 -18 8.84 -18 0 C-15.33333333 0 -12.66666667 0 -10 0 C-6.75982729 -1.62008635 -3.41275162 -0.8042345 0 0 Z " fill="#000000" transform="translate(973,625)"/>
<path d="M0 0 C1.98 0 3.96 0 6 0 C8.32330984 5.60526694 10.46745644 11.12524968 12 17 C14.16965398 13.74551903 15.36143262 10.4746415 16.625 6.8125 C16.85445312 6.15830078 17.08390625 5.50410156 17.3203125 4.83007812 C17.88395144 3.22135865 18.44247984 1.61085023 19 0 C20.98 0 22.96 0 25 0 C22.56696874 8.87842985 19.29163506 17.41405225 16 26 C13.69 26 11.38 26 9 26 C7.49744208 21.85508918 5.99838155 17.70892222 4.5 13.5625 C4.07074219 12.37849609 3.64148438 11.19449219 3.19921875 9.97460938 C2.79316406 8.84990234 2.38710938 7.72519531 1.96875 6.56640625 C1.59169922 5.52427979 1.21464844 4.48215332 0.82617188 3.40844727 C0 1 0 1 0 0 Z " fill="#000000" transform="translate(895,625)"/>
<path d="M0 0 C1.65 0 3.3 0 5 0 C5 2.31 5 4.62 5 7 C6.32 7 7.64 7 9 7 C9 8.32 9 9.64 9 11 C7.68 11 6.36 11 5 11 C5.33 16.61 5.66 22.22 6 28 C6.99 28.33 7.98 28.66 9 29 C9 30.65 9 32.3 9 34 C3.5047654 34.36634897 3.5047654 34.36634897 1.3190918 32.7800293 C-0.38322249 30.48286597 -0.34720925 29.17061766 -0.29296875 26.33203125 C-0.28330078 25.43935547 -0.27363281 24.54667969 -0.26367188 23.62695312 C-0.23853516 22.69818359 -0.21339844 21.76941406 -0.1875 20.8125 C-0.16719727 19.40194336 -0.16719727 19.40194336 -0.14648438 17.96289062 C-0.11113096 15.64134962 -0.06178674 13.32096347 0 11 C-0.99 11 -1.98 11 -3 11 C-3 9.68 -3 8.36 -3 7 C-2.01 7 -1.02 7 0 7 C0 4.69 0 2.38 0 0 Z " fill="#000000" transform="translate(986,618)"/>
<path d="M0 0 C1.66611905 -0.042721 3.33382885 -0.04063832 5 0 C6 1 6 1 6.0625 3.5625 C6.041875 4.366875 6.02125 5.17125 6 6 C4.02 6 2.04 6 0 6 C0 4.02 0 2.04 0 0 Z " fill="#000000" transform="translate(1003,645)"/>
</svg>
