<?xml version="1.0" encoding="UTF-8"?>
<svg version="1.1" xmlns="http://www.w3.org/2000/svg" width="1080" height="1080">
<path d="M0 0 C0.33 -1.32 0.66 -2.64 1 -4 C73.27 -4 145.54 -4 220 -4 C220 7.55 220 19.1 220 31 C200.53 31 181.06 31 161 31 C161 42.22 161 53.44 161 65 C165.03089844 64.98839844 169.06179688 64.97679687 173.21484375 64.96484375 C176.42077859 64.95841672 179.62671163 64.95299253 182.83264923 64.94824982 C186.22137231 64.94296031 189.61007056 64.9358872 192.9987793 64.92456055 C196.88329777 64.91165733 200.76780597 64.90677076 204.65234375 64.90234375 C205.87211411 64.89718246 207.09188446 64.89202118 208.34861755 64.88670349 C210.03024742 64.88659019 210.03024742 64.88659019 211.74584961 64.88647461 C212.73846298 64.884254 213.73107635 64.88203339 214.75376892 64.87974548 C217 65 217 65 218 66 C218.10082764 68.43660446 218.13972603 70.84424701 218.1328125 73.28125 C218.13424759 74.37427429 218.13424759 74.37427429 218.13571167 75.48937988 C218.13639335 77.0327971 218.13453988 78.57621717 218.13037109 80.11962891 C218.12502262 82.489974 218.13031642 84.86012959 218.13671875 87.23046875 C218.13605797 88.72656292 218.1347768 90.22265697 218.1328125 91.71875 C218.13584885 92.78905457 218.13584885 92.78905457 218.13894653 93.88098145 C218.11495191 98.88504809 218.11495191 98.88504809 217 100 C215.2507128 100.09365006 213.49763746 100.11744438 211.74584961 100.11352539 C210.62476303 100.11344986 209.50367645 100.11337433 208.34861755 100.11329651 C206.51896202 100.10555458 206.51896202 100.10555458 204.65234375 100.09765625 C203.41078018 100.0962413 202.16921661 100.09482635 200.89002991 100.09336853 C197.58394509 100.08870591 194.27792854 100.07971497 190.97186279 100.06866455 C187.60038861 100.05844827 184.22890718 100.05381574 180.85742188 100.04882812 C174.23824261 100.03862279 167.61918347 100.01905106 161 100 C161 111.22 161 122.44 161 134 C180.47 134 199.94 134 220 134 C220 145.55 220 157.1 220 169 C187 169 154 169 120 169 C120 123.46 120 77.92 120 31 C107.46 31 94.92 31 82 31 C82 76.54 82 122.08 82 169 C68.8 169 55.6 169 42 169 C42 123.46 42 77.92 42 31 C29.46 31 16.92 31 4 31 C3.01 33.97 3.01 33.97 2 37 C1.36184656 38.34721283 0.70674629 39.68747118 0 41 C-4.90751495 39.8851781 -9.33312332 37.69160581 -13.89257812 35.61523438 C-27.00081086 29.74939324 -37.24736961 29.47368452 -51 33 C-51 33.66 -51 34.32 -51 35 C-51.474375 35.37125 -51.94875 35.7425 -52.4375 36.125 C-54.85999168 39.03199001 -55.15060382 42.32813541 -55 46 C-53.68326167 48.83658587 -53.68326167 48.83658587 -52 51 C-52 51.66 -52 52.32 -52 53 C-51.49726563 53.24492188 -50.99453125 53.48984375 -50.4765625 53.7421875 C-47.79679485 55.10320514 -45.16027302 56.53776626 -42.51782227 57.96948242 C-35.64552772 61.67536941 -28.72944861 65.08793239 -21.5625 68.1875 C-6.92396471 74.58228558 8.37292226 83.31852613 16 98 C16.40863281 98.68578125 16.81726563 99.3715625 17.23828125 100.078125 C22.17844298 109.78868345 21.38437366 123.76360096 18.8125 134.125 C18.25658311 135.76713239 17.65343931 137.39417951 17 139 C16.50693359 140.25103516 16.50693359 140.25103516 16.00390625 141.52734375 C9.97840793 155.05865314 -0.93434189 163.13036485 -14.4140625 168.3125 C-41.20776181 176.6893807 -70.11395791 173.34890625 -94.93408203 160.53369141 C-104.52210638 155.47789362 -104.52210638 155.47789362 -107 153 C-107.33 158.28 -107.66 163.56 -108 169 C-141 169 -174 169 -208 169 C-208 111.91 -208 54.82 -208 -4 C-175 -4 -142 -4 -108 -4 C-108 7.55 -108 19.1 -108 31 C-127.8 31 -147.6 31 -168 31 C-168 42.22 -168 53.44 -168 65 C-149.19 65 -130.38 65 -111 65 C-111 76.55 -111 88.1 -111 100 C-129.81 100 -148.62 100 -168 100 C-168 111.22 -168 122.44 -168 134 C-148.2 134 -128.4 134 -108 134 C-107.505 138.455 -107.505 138.455 -107 143 C-106.43152344 141.97261719 -105.86304688 140.94523438 -105.27734375 139.88671875 C-100.75437373 131.75500651 -96.12187089 123.77338604 -91 116 C-87.86047586 117.47954586 -85.06690938 119.25462458 -82.1875 121.1875 C-77.67538561 124.08252105 -73.09614321 126.54348956 -68.25 128.8125 C-67.63664795 129.10213623 -67.0232959 129.39177246 -66.39135742 129.69018555 C-55.9631691 134.45988472 -44.36273205 136.30980073 -33.3125 132.375 C-29.10112458 130.36391057 -26.83401296 128.41830395 -25 124 C-24.15437046 118.36910215 -24.65444731 114.7110844 -28 110 C-34.13967999 104.23081794 -42.04944174 100.96625751 -49.60302734 97.48193359 C-68.18309905 88.8748547 -85.0307342 79.83209508 -93.30859375 59.97265625 C-97.33545194 48.48359757 -96.00293964 33.91818005 -91 23 C-85.34044884 13.0537591 -77.74323759 5.84934333 -68 0 C-67.37480469 -0.3815625 -66.74960937 -0.763125 -66.10546875 -1.15625 C-46.11394469 -12.26732863 -20.36311069 -7.54189285 0 0 Z " fill="#232224" transform="translate(493,474)"/>
<path d="M0 0 C13.53 0 27.06 0 41 0 C52.05219642 12.80096167 52.05219642 12.80096167 54.203125 18.390625 C56.51575341 23.97446788 59.18640381 28.73968072 62.625 33.6875 C63.49740899 35.02133898 64.36454344 36.35864164 65.2265625 37.69921875 C65.66774414 38.38161621 66.10892578 39.06401367 66.56347656 39.76708984 C70.00233068 45.11239231 73.40147825 50.48313722 76.80908203 55.84838867 C80.77239713 62.08396829 84.76886185 68.29666403 88.79443359 74.4921875 C93.4136888 81.61289984 97.95695236 88.78186408 102.49414062 95.95507812 C103.06583984 96.85677734 103.63753906 97.75847656 104.2265625 98.6875 C104.99347412 99.89986328 104.99347412 99.89986328 105.77587891 101.13671875 C106.86667975 102.93425421 106.86667975 102.93425421 108 104 C108.33 69.68 108.66 35.36 109 0 C122.2 0 135.4 0 149 0 C149 57.09 149 114.18 149 173 C135.47 173 121.94 173 108 173 C96.94780358 160.19903833 96.94780358 160.19903833 94.796875 154.609375 C92.48424659 149.02553212 89.81359619 144.26031928 86.375 139.3125 C85.50259101 137.97866102 84.63545656 136.64135836 83.7734375 135.30078125 C83.33225586 134.61838379 82.89107422 133.93598633 82.43652344 133.23291016 C78.99766932 127.88760769 75.59852175 122.51686278 72.19091797 117.15161133 C68.65240769 111.58438742 65.09061169 106.03376625 61.5 100.5 C54.94461784 90.36895485 48.47844591 80.180415 42 70 C41.67 103.99 41.34 137.98 41 173 C27.47 173 13.94 173 0 173 C0 115.91 0 58.82 0 0 Z " fill="#232224" transform="translate(128,470)"/>
<path d="M0 0 C83.60235294 0 83.60235294 0 109 21 C109.58007812 21.43441406 110.16015625 21.86882812 110.7578125 22.31640625 C118.16250149 28.08517558 124.56171091 36.80069321 129 45 C129 45.66 129 46.32 129 47 C129.78375 47.144375 130.5675 47.28875 131.375 47.4375 C134 48 134 48 136 49 C136.80538248 52.66082948 137.07879488 55.54474068 136.4375 59.25 C136.03158922 62.72923525 136.22849681 64.63848885 136.94921875 67.98046875 C141.5892059 92.27559417 137.05752082 115.31701169 124.08984375 136.0546875 C109.39459195 157.35827635 89.93916779 167.65589262 65 173 C43.55 173 22.1 173 0 173 C0 115.91 0 58.82 0 0 Z M41 36 C41 69.33 41 102.66 41 137 C58.03071628 137 68.75968049 134.77892215 81.1875 123.3125 C91.29691554 112.76004234 95.38829778 98.66063064 95.2109375 84.34765625 C94.23720768 68.89420342 88.4143839 56.47697073 77 46 C65.476698 37.53171295 55.24200823 36 41 36 Z " fill="#232224" transform="translate(718,470)"/>
<path d="M0 0 C83.82 0 167.64 0 254 0 C254 2.31 254 4.62 254 7 C170.18 7 86.36 7 0 7 C0 4.69 0 2.38 0 0 Z " fill="#232224" transform="translate(637,661)"/>
<path d="M0 0 C2.31 0 4.62 0 7 0 C9.07983398 2.11132812 9.07983398 2.11132812 10.74609375 5.03125 C11.35517578 6.06894531 11.96425781 7.10664062 12.59179688 8.17578125 C13.20087891 9.27277344 13.80996094 10.36976563 14.4375 11.5 C15.07365234 12.59699219 15.70980469 13.69398438 16.36523438 14.82421875 C17.93343761 17.53614916 19.46980318 20.26644451 21 23 C21.33 15.41 21.66 7.82 22 0 C23.98 0 25.96 0 28 0 C28 11.22 28 22.44 28 34 C21 34 21 34 19.15136719 32.33520508 C18.48089355 31.18894653 18.48089355 31.18894653 17.796875 30.01953125 C17.2915625 29.18486328 16.78625 28.35019531 16.265625 27.49023438 C15.51539063 26.16475586 15.51539063 26.16475586 14.75 24.8125 C14.234375 23.94818359 13.71875 23.08386719 13.1875 22.19335938 C12.22391977 20.57290551 11.27054929 18.94630344 10.33105469 17.31176758 C8.91758633 14.85686444 7.45743509 12.42905849 6 10 C5.67 17.92 5.34 25.84 5 34 C3.35 34 1.7 34 0 34 C0 22.78 0 11.56 0 0 Z " fill="#232224" transform="translate(746,680)"/>
<path d="M0 0 C3.196875 -0.061875 6.39375 -0.12375 9.6875 -0.1875 C11.18543091 -0.22846802 11.18543091 -0.22846802 12.71362305 -0.27026367 C17.59874278 -0.3160386 21.11246137 -0.31807496 25 3 C28.98302072 7.83897074 29.57742315 13.29913101 29.31640625 19.38671875 C28.6158548 25.17275482 26.57492155 29.22016514 21.92138672 32.97460938 C18.07685662 35.02632811 13.86573386 34.50758343 9.625 34.3125 C6.44875 34.209375 3.2725 34.10625 0 34 C0 22.78 0 11.56 0 0 Z M6 4 C6 12.58 6 21.16 6 30 C14.29097888 30.11724521 14.29097888 30.11724521 21 27 C23.21648993 23.74131944 23.26938191 20.87638179 23.25 17 C23.25515625 15.96875 23.2603125 14.9375 23.265625 13.875 C22.99959486 10.99561492 22.61591481 9.37571582 21 7 C15.22412427 3.76550959 13.35783349 4 6 4 Z " fill="#232224" transform="translate(843,680)"/>
<path d="M0 0 C1.65 0 3.3 0 5 0 C5.01981934 0.63502441 5.03963867 1.27004883 5.06005859 1.92431641 C5.15581122 4.82493326 5.26528546 7.72487905 5.375 10.625 C5.4059375 11.62402344 5.436875 12.62304688 5.46875 13.65234375 C5.7534173 21.01864584 5.7534173 21.01864584 8 28 C11.01868434 29.50934217 13.67297229 29.17510672 17 29 C20.24849977 27.27773504 20.24849977 27.27773504 21 24 C21.14889747 22.15533558 21.2479101 20.30642725 21.31640625 18.45703125 C21.35830078 17.38388672 21.40019531 16.31074219 21.44335938 15.20507812 C21.48267578 14.08552734 21.52199219 12.96597656 21.5625 11.8125 C21.60568359 10.68134766 21.64886719 9.55019531 21.69335938 8.38476562 C21.79949099 5.58996646 21.90154385 2.79507838 22 0 C23.98 0 25.96 0 28 0 C28.05850924 3.68743234 28.09376673 7.3747437 28.125 11.0625 C28.15013672 12.62000977 28.15013672 12.62000977 28.17578125 14.20898438 C28.21166294 19.86035077 28.09156158 24.71418281 26 30 C20.92878212 34.81765698 17.49441261 35.29478721 10.69921875 35.21484375 C7.33671048 34.94720561 5.50665985 34.27166049 3 32 C0.16259033 28.09074708 -0.3611521 25.40103098 -0.29296875 20.60546875 C-0.28330078 19.40341797 -0.27363281 18.20136719 -0.26367188 16.96289062 C-0.23853516 15.71701172 -0.21339844 14.47113281 -0.1875 13.1875 C-0.17396484 11.92228516 -0.16042969 10.65707031 -0.14648438 9.35351562 C-0.11118318 6.23524357 -0.06186819 3.11783958 0 0 Z " fill="#232224" transform="translate(714,680)"/>
<path d="M0 0 C8.25 0 16.5 0 25 0 C25 1.32 25 2.64 25 4 C18.4 4 11.8 4 5 4 C5 7.3 5 10.6 5 14 C11.27 14 17.54 14 24 14 C24 15.65 24 17.3 24 19 C17.73 19 11.46 19 5 19 C5 22.63 5 26.26 5 30 C11.93 30 18.86 30 26 30 C26 31.32 26 32.64 26 34 C17.42 34 8.84 34 0 34 C0 22.78 0 11.56 0 0 Z " fill="#232224" transform="translate(815,680)"/>
<path d="M0 0 C9.24 0 18.48 0 28 0 C28 1.32 28 2.64 28 4 C24.37 4 20.74 4 17 4 C17 13.9 17 23.8 17 34 C15.02 34 13.04 34 11 34 C11 24.1 11 14.2 11 4 C7.37 4 3.74 4 0 4 C0 2.68 0 1.36 0 0 Z " fill="#232224" transform="translate(785,680)"/>
<path d="M0 0 C1.98 0 3.96 0 6 0 C6 11.22 6 22.44 6 34 C4.02 34 2.04 34 0 34 C0 22.78 0 11.56 0 0 Z " fill="#232224" transform="translate(778,680)"/>
<path d="M0 0 C2 1.625 2 1.625 3 4 C3 7.5625 3 7.5625 2 11 C-0.82291337 13.58094937 -2.30522028 14.01389559 -6.125 13.9375 C-9 13 -9 13 -10.875 11.3125 C-12.33690996 8.30746287 -12.42168789 6.30322178 -12 3 C-8.55368433 -1.54287065 -5.33565473 -1.21690371 0 0 Z " fill="#000000" transform="translate(886,584)"/>
<path d="M0 0 C4.87731839 1.44513138 4.87731839 1.44513138 6.375 4 C6.79668789 7.30322178 6.71190996 9.30746287 5.25 12.3125 C2.63843795 14.66290584 0.86425922 14.93021482 -2.625 15 C-5.4375 14 -5.4375 14 -7.625 12 C-8.75 8.625 -8.75 8.625 -8.625 5 C-5.99586945 1.05630417 -4.7922916 0 0 0 Z " fill="#000000" transform="translate(848.625,384)"/>
<path d="M0 0 C2 1.6875 2 1.6875 3 4 C2.87126043 7.15411935 2.55207235 9.1994951 0.75 11.8125 C-1.58992192 13.40030416 -3.16582395 13.86503924 -6 14 C-10.59701493 11.80597015 -10.59701493 11.80597015 -12 9 C-12.45913043 3.60521739 -12.45913043 3.60521739 -10.625 1.1875 C-6.89534842 -1.53801462 -4.45698847 -1.01650614 0 0 Z " fill="#000000" transform="translate(886,385)"/>
<path d="M0 0 C2 1.6875 2 1.6875 3 4 C2.87126043 7.15411935 2.55207235 9.1994951 0.75 11.8125 C-1.58992192 13.40030416 -3.16582395 13.86503924 -6 14 C-10.59701493 11.80597015 -10.59701493 11.80597015 -12 9 C-12.45913043 3.60521739 -12.45913043 3.60521739 -10.625 1.1875 C-6.89534842 -1.53801462 -4.45698847 -1.01650614 0 0 Z " fill="#000000" transform="translate(683,385)"/>
<path d="M0 0 C3 2 3 2 3.875 4.8125 C4.02696888 8.68770638 3.61721762 10.13741823 1 13 C-2.375 14.125 -2.375 14.125 -6 14 C-9 12 -9 12 -11 9 C-11.125 5.375 -11.125 5.375 -10 2 C-6.5723793 -1.04677396 -4.30578754 -1.47303258 0 0 Z " fill="#000000" transform="translate(885,418)"/>
<path d="M0 0 C1.9375 1.625 1.9375 1.625 3 4 C2.93439072 7.739729 2.76345433 10.0603639 0.375 13 C-3.14974145 14.48410166 -5.36810976 14.05654989 -9 13 C-11.56809203 10.19114934 -12 8.67384851 -12 4.875 C-11 2 -11 2 -8.8125 0.0625 C-5.32408458 -1.25534582 -3.53311738 -1.15210349 0 0 Z " fill="#000000" transform="translate(852,418)"/>
<path d="M0 0 C1.9375 1.1875 1.9375 1.1875 3 3 C3.42168789 6.30322178 3.33690996 8.30746287 1.875 11.3125 C-0.70124565 13.63112109 -2.57091775 13.86003746 -6 14 C-8.25 13.5 -8.25 13.5 -10 12 C-11.4375 8.6875 -11.4375 8.6875 -12 5 C-9.22441287 -1.38385039 -6.49833848 -1.36807126 0 0 Z " fill="#000000" transform="translate(818,385)"/>
<path d="M0 0 C3 2 3 2 3.8125 5.375 C3.9921081 8.84742335 4.0091148 10.25068501 2 13 C-1.09173752 14.54586876 -3.59429552 14.29359521 -7 14 C-9.5 12.5 -9.5 12.5 -11 10 C-11.18239848 7.02278614 -10.72078527 4.97924577 -10 2 C-6.31282562 -0.45811625 -4.35654296 -0.31118164 0 0 Z " fill="#000000" transform="translate(682,351)"/>
<path d="M0 0 C3 2 3 2 3.8125 5.375 C3.9921081 8.84742335 4.0091148 10.25068501 2 13 C-1.09173752 14.54586876 -3.59429552 14.29359521 -7 14 C-9.5 12.5 -9.5 12.5 -11 10 C-11.18239848 7.02278614 -10.72078527 4.97924577 -10 2 C-6.31282562 -0.45811625 -4.35654296 -0.31118164 0 0 Z " fill="#000000" transform="translate(885,517)"/>
<path d="M0 0 C3 2 3 2 3.8125 5.375 C3.9921081 8.84742335 4.0091148 10.25068501 2 13 C-1.09173752 14.54586876 -3.59429552 14.29359521 -7 14 C-9.5 12.5 -9.5 12.5 -11 10 C-11.18239848 7.02278614 -10.72078527 4.97924577 -10 2 C-6.31282562 -0.45811625 -4.35654296 -0.31118164 0 0 Z " fill="#000000" transform="translate(885,351)"/>
<path d="M0 0 C3 2 3 2 3.9375 5.875 C4.1995012 8.94097146 4.13724886 9.77125189 2.5 12.5 C-0.88818688 14.53291213 -3.11523694 14.49442439 -7 14 C-9.46891556 12.43635348 -9.89253053 11.34927578 -10.75 8.5625 C-11.00251544 5.97421671 -10.99130809 4.39566122 -10 2 C-6.31282562 -0.45811625 -4.35654296 -0.31118164 0 0 Z " fill="#000000" transform="translate(851,351)"/>
<path d="M0 0 C3 2 3 2 3.9375 5.875 C4.1995012 8.94097146 4.13724886 9.77125189 2.5 12.5 C-0.88818688 14.53291213 -3.11523694 14.49442439 -7 14 C-9.46891556 12.43635348 -9.89253053 11.34927578 -10.75 8.5625 C-11.00251544 5.97421671 -10.99130809 4.39566122 -10 2 C-6.31282562 -0.45811625 -4.35654296 -0.31118164 0 0 Z " fill="#000000" transform="translate(817,351)"/>
<path d="M0 0 C2.22592258 3.50751438 3.17865148 5.6601139 2.625 9.8125 C1 12 1 12 -2.3125 13.5 C-6 14 -6 14 -8.875 12.6875 C-11 11 -11 11 -12 10 C-12.47094801 3.64220183 -12.47094801 3.64220183 -10.625 1.125 C-6.84297281 -1.49332652 -4.4391887 -1.24608806 0 0 Z " fill="#000000" transform="translate(920,584)"/>
<path d="M0 0 C2 1.6875 2 1.6875 3 4 C2.87304813 7.11032079 2.47953174 9.20078043 0.875 11.875 C-2.16832808 13.70099685 -4.54249555 13.42460581 -8 13 C-10.4375 11.375 -10.4375 11.375 -12 9 C-12.4375 5.9375 -12.4375 5.9375 -12 3 C-8.55368433 -1.54287065 -5.33565473 -1.21690371 0 0 Z " fill="#000000" transform="translate(886,551)"/>
<path d="M0 0 C2.3125 0.625 2.3125 0.625 4 2 C5.221924 5.665772 5.33557085 7.31360508 3.625 10.8125 C2 13 2 13 1 14 C-2.85797355 14.36395977 -5.15988698 14.56007535 -8.4375 12.375 C-10.47161336 9.28314769 -10.60605429 7.63632575 -10 4 C-7.18200591 -0.11860675 -4.84806767 -0.60600846 0 0 Z " fill="#000000" transform="translate(918,517)"/>
<path d="M0 0 C2 1 2 1 3 3 C3.45429103 5.76024928 3.51084843 8.2448624 3 11 C0.80287161 13.70415801 -0.55941961 13.94492745 -4 14.375 C-7.44058039 13.94492745 -8.80287161 13.70415801 -11 11 C-11.65964122 7.44238446 -11.63041883 4.26083766 -10 1 C-6.73794446 -0.63102777 -3.56444611 -0.51981506 0 0 Z " fill="#000000" transform="translate(953,484)"/>
<path d="M0 0 C2.67089215 1.60253529 2.96731349 2.89976136 3.9375 5.875 C4 9 4 9 2.5 11.875 C0 14 0 14 -3.5 14.5625 C-7 14 -7 14 -9.5 12.5 C-11.81616593 8.63972346 -11.04913219 6.33641305 -10 2 C-6.30513897 -0.46324069 -4.36706908 -0.38991688 0 0 Z " fill="#000000" transform="translate(885,484)"/>
<path d="M0 0 C1.54586876 3.09173752 1.29359521 5.59429552 1 9 C-0.5625 11.5 -0.5625 11.5 -3 13 C-6.46954545 12.93913078 -8.91947278 12.6274029 -11.9375 10.875 C-13.64550843 7.86086748 -13.36204814 5.37911601 -13 2 C-9.43939761 -3.08657484 -5.26728766 -1.85330492 0 0 Z " fill="#000000" transform="translate(752,419)"/>
<path d="M0 0 C1.9375 1.625 1.9375 1.625 3 4 C2.93439072 7.739729 2.76345433 10.0603639 0.375 13 C-3.14974145 14.48410166 -5.36810976 14.05654989 -9 13 C-11.36604164 10.33820316 -12.04466185 8.93789883 -11.875 5.375 C-9.66456654 -0.62474796 -5.87190046 -1.55785114 0 0 Z " fill="#000000" transform="translate(818,418)"/>
<path d="M0 0 C2.22592258 3.50751438 3.17865148 5.6601139 2.625 9.8125 C1 12 1 12 -2.3125 13.5 C-6 14 -6 14 -8.875 12.6875 C-11 11 -11 11 -12 10 C-12.47094801 3.64220183 -12.47094801 3.64220183 -10.625 1.125 C-6.84297281 -1.49332652 -4.4391887 -1.24608806 0 0 Z " fill="#000000" transform="translate(920,385)"/>
<path d="M0 0 C1.9375 1.125 1.9375 1.125 3 3 C3.6414791 8.98713826 3.6414791 8.98713826 1.8125 11.875 C-1.46044432 13.90648268 -3.92899003 14.22416488 -7.6875 13.4375 C-10 12 -10 12 -11.5 9.25 C-12.13011181 5.15427323 -11.23079126 3.42585801 -9 0 C-5.85000502 -1.57499749 -3.36459118 -0.70833498 0 0 Z " fill="#000000" transform="translate(784,385)"/>
<path d="M0 0 C2.22592258 3.50751438 3.17865148 5.6601139 2.625 9.8125 C1 12 1 12 -2.3125 13.5 C-6 14 -6 14 -8.875 12.6875 C-11 11 -11 11 -12 10 C-12.47094801 3.64220183 -12.47094801 3.64220183 -10.625 1.125 C-6.84297281 -1.49332652 -4.4391887 -1.24608806 0 0 Z " fill="#000000" transform="translate(717,385)"/>
<path d="M0 0 C2.3125 0.625 2.3125 0.625 4 2 C5.221924 5.665772 5.33557085 7.31360508 3.625 10.8125 C2 13 2 13 1 14 C-2.52299415 14.26588635 -5.17067114 14.36150232 -8.4375 12.9375 C-10 11 -10 11 -10.5 7.5625 C-10 4 -10 4 -8.375 1.5625 C-5.31889507 -0.44809535 -3.59974487 -0.44996811 0 0 Z " fill="#000000" transform="translate(918,351)"/>
<path d="M0 0 C2.3125 0.625 2.3125 0.625 4 2 C5.221924 5.665772 5.33557085 7.31360508 3.625 10.8125 C2 13 2 13 1 14 C-2.52299415 14.26588635 -5.17067114 14.36150232 -8.4375 12.9375 C-10 11 -10 11 -10.5 7.5625 C-10 4 -10 4 -8.375 1.5625 C-5.31889507 -0.44809535 -3.59974487 -0.44996811 0 0 Z " fill="#000000" transform="translate(715,351)"/>
<path d="M0 0 C1.54586876 3.09173752 1.29359521 5.59429552 1 9 C-0.5625 11.5 -0.5625 11.5 -3 13 C-6.46954545 12.93913078 -8.91947278 12.6274029 -11.9375 10.875 C-13.64550843 7.86086748 -13.36204814 5.37911601 -13 2 C-9.43939761 -3.08657484 -5.26728766 -1.85330492 0 0 Z " fill="#000000" transform="translate(955,618)"/>
<path d="M0 0 C1.625 2.75 1.625 2.75 2 6 C1.0625 9.3125 1.0625 9.3125 -1 12 C-4.375 13.125 -4.375 13.125 -8 13 C-10.9375 11.5 -10.9375 11.5 -13 9 C-13.50193575 5.42370779 -13.80542516 3.15060737 -11.6875 0.125 C-7.42888378 -2.71407748 -4.53235537 -1.89534861 0 0 Z " fill="#000000" transform="translate(921,618)"/>
<path d="M0 0 C2.375 1 2.375 1 4 3 C4.65964122 6.55761554 4.63041883 9.73916234 3 13 C-0.2586419 14.62932095 -3.43897344 14.52673518 -7 14 C-9 12.9375 -9 12.9375 -10 11 C-10.50030235 7.06905293 -10.5996142 4.8994213 -8.375 1.5625 C-5.30182885 -0.45932313 -3.61752119 -0.52755517 0 0 Z " fill="#000000" transform="translate(952,517)"/>
<path d="M0 0 C2.42194927 1.53390121 2.88729401 2.69408374 3.875 5.375 C4.0376843 8.79137035 3.02489572 10.30013904 1 13 C-1.84083641 14.42041821 -3.85477278 14.31452272 -7 14 C-9.375 12.375 -9.375 12.375 -11 10 C-11.60605429 6.36367425 -11.47161336 4.71685231 -9.4375 1.625 C-6.1005787 -0.5996142 -3.93094707 -0.50030235 0 0 Z " fill="#000000" transform="translate(919,484)"/>
<path d="M0 0 C1.54586876 3.09173752 1.29359521 5.59429552 1 9 C-0.5625 11.5 -0.5625 11.5 -3 13 C-6.46954545 12.93913078 -8.91947278 12.6274029 -11.9375 10.875 C-13.64550843 7.86086748 -13.36204814 5.37911601 -13 2 C-9.43939761 -3.08657484 -5.26728766 -1.85330492 0 0 Z " fill="#000000" transform="translate(955,419)"/>
<path d="M0 0 C1.625 2.75 1.625 2.75 2 6 C1.0625 9.3125 1.0625 9.3125 -1 12 C-4.375 13.125 -4.375 13.125 -8 13 C-10.9375 11.5 -10.9375 11.5 -13 9 C-13.50193575 5.42370779 -13.80542516 3.15060737 -11.6875 0.125 C-7.42888378 -2.71407748 -4.53235537 -1.89534861 0 0 Z " fill="#000000" transform="translate(921,419)"/>
<path d="M0 0 C2 2 2 2 2.4375 5.375 C2 9 2 9 -0.0625 11.5 C-3 13 -3 13 -6.625 13.1875 C-10 12 -10 12 -12.0625 8.75 C-13 5 -13 5 -12.5 2.1875 C-9.03087187 -2.87164519 -5.19322331 -2.30809925 0 0 Z " fill="#000000" transform="translate(785,419)"/>
<path d="M0 0 C1.625 2.75 1.625 2.75 2 6 C1.0625 9.3125 1.0625 9.3125 -1 12 C-4.375 13.125 -4.375 13.125 -8 13 C-10.9375 11.5 -10.9375 11.5 -13 9 C-13.50193575 5.42370779 -13.80542516 3.15060737 -11.6875 0.125 C-7.42888378 -2.71407748 -4.53235537 -1.89534861 0 0 Z " fill="#000000" transform="translate(718,419)"/>
<path d="M0 0 C2.375 1 2.375 1 4 3 C4.65964122 6.55761554 4.63041883 9.73916234 3 13 C-0.2586419 14.62932095 -3.43897344 14.52673518 -7 14 C-9 12.9375 -9 12.9375 -10 11 C-10.50030235 7.06905293 -10.5996142 4.8994213 -8.375 1.5625 C-5.30182885 -0.45932313 -3.61752119 -0.52755517 0 0 Z " fill="#000000" transform="translate(952,351)"/>
<path d="M0 0 C2.375 1.5625 2.375 1.5625 4 4 C4.5 7.5625 4.5 7.5625 4 11 C2.4375 12.9375 2.4375 12.9375 0 14 C-6.04545455 14.63636364 -6.04545455 14.63636364 -8.875 12.75 C-10.18626396 10.71025607 -10.78582164 9.4273548 -11 7 C-9.26890903 0.94118159 -6.20589747 -0.75990581 0 0 Z " fill="#000000" transform="translate(783,351)"/>
<path d="M0 0 C2.37312298 1.79587685 3.64611144 3.26863031 4.9375 5.9375 C5.02874 8.94842003 3.69664528 10.58554326 2 13 C1 14 1 14 -2.875 14.25 C-5.40801531 14.20006601 -6.74307975 14.13648888 -9 12.9375 C-10.60856522 9.82090489 -10.42213381 7.43737531 -10 4 C-7.26646839 -0.10029741 -4.80388991 -0.80064832 0 0 Z " fill="#000000" transform="translate(749,351)"/>
<path d="M0 0 C2.46324069 3.69486103 2.38991688 5.63293092 2 10 C0.46609879 12.42194927 -0.69408374 12.88729401 -3.375 13.875 C-6.77139406 14.03673305 -8.28560423 12.96039694 -11 11 C-12 10 -12 10 -12.25 6.625 C-12 3 -12 3 -10.625 1.125 C-6.85646767 -1.48398392 -4.44638807 -0.95279744 0 0 Z " fill="#000000" transform="translate(954,584)"/>
<path d="M0 0 C2.67089215 1.60253529 2.96731349 2.89976136 3.9375 5.875 C4 9 4 9 2.5 11.875 C0 14 0 14 -3.5 14.625 C-7 14 -7 14 -9.5 11.875 C-11 9 -11 9 -10.9375 5.875 C-8.95050095 -0.21846374 -6.28604728 -0.67350507 0 0 Z " fill="#000000" transform="translate(851,484)"/>
<path d="M0 0 C2.46324069 3.69486103 2.38991688 5.63293092 2 10 C0.46609879 12.42194927 -0.69408374 12.88729401 -3.375 13.875 C-6.77139406 14.03673305 -8.28560423 12.96039694 -11 11 C-12 10 -12 10 -12.25 6.625 C-12 3 -12 3 -10.625 1.125 C-6.85646767 -1.48398392 -4.44638807 -0.95279744 0 0 Z " fill="#000000" transform="translate(954,385)"/>
<path d="M0 0 C2.46324069 3.69486103 2.38991688 5.63293092 2 10 C0.46609879 12.42194927 -0.69408374 12.88729401 -3.375 13.875 C-6.77139406 14.03673305 -8.28560423 12.96039694 -11 11 C-12 10 -12 10 -12.25 6.625 C-12 3 -12 3 -10.625 1.125 C-6.85646767 -1.48398392 -4.44638807 -0.95279744 0 0 Z " fill="#000000" transform="translate(751,385)"/>
<path d="M0 0 C3 2 3 2 3.8125 5.375 C3.9921081 8.84742335 4.0091148 10.25068501 2 13 C-1.01868434 14.50934217 -3.67297229 14.17510672 -7 14 C-7.99 13.34 -8.98 12.68 -10 12 C-10.3984375 9.6875 -10.3984375 9.6875 -10.375 7 C-10.38273438 6.113125 -10.39046875 5.22625 -10.3984375 4.3125 C-10.26695312 3.549375 -10.13546875 2.78625 -10 2 C-6.31282562 -0.45811625 -4.35654296 -0.31118164 0 0 Z " fill="#000000" transform="translate(648,351)"/>
<path d="M0 0 C2.42194927 1.53390121 2.88729401 2.69408374 3.875 5.375 C4.04466185 8.93789883 3.36604164 10.33820316 1 13 C-2.375 14.125 -2.375 14.125 -6 14 C-9 12 -9 12 -11 9 C-11 5.3125 -11 5.3125 -10 2 C-6.30513897 -0.46324069 -4.36706908 -0.38991688 0 0 Z " fill="#000000" transform="translate(885,451)"/>
<path d="M0 0 C2 1.0625 2 1.0625 3 3 C3.49891602 6.92005446 3.55253414 9.11594538 1.4375 12.5 C-1 14 -1 14 -4.5625 13.9375 C-8 13 -8 13 -9.9375 11.875 C-11.64550843 8.86086748 -11.36204814 6.37911601 -11 3 C-8.82986072 -1.20464485 -4.15736573 -0.61494368 0 0 Z " fill="#000000" transform="translate(953,650)"/>
<path d="M0 0 C2.46324069 3.69486103 2.38991688 5.63293092 2 10 C1 11.9375 1 11.9375 -1 13 C-4.58042244 13.52960415 -7.75978228 13.65886567 -11 11.9375 C-12.58433618 8.86784865 -12.36248449 6.38318857 -12 3 C-8.62691497 -1.5996614 -5.29649276 -1.13496274 0 0 Z " fill="#000000" transform="translate(954,551)"/>
<path d="M0 0 C2.125 3.25 2.125 3.25 3 7 C1.90826454 9.51099157 0.91823096 11.08176904 -1 13 C-4.52299415 13.26588635 -7.17067114 13.36150232 -10.4375 11.9375 C-12 10 -12 10 -12.4375 6.5 C-12 3 -12 3 -10.625 1.125 C-6.84297281 -1.49332652 -4.4391887 -1.24608806 0 0 Z " fill="#000000" transform="translate(920,551)"/>
<path d="M0 0 C2 1.0625 2 1.0625 3 3 C3.49891602 6.92005446 3.55253414 9.11594538 1.4375 12.5 C-1 14 -1 14 -4.5625 13.9375 C-8 13 -8 13 -9.9375 11.875 C-11.64550843 8.86086748 -11.36204814 6.37911601 -11 3 C-8.82986072 -1.20464485 -4.15736573 -0.61494368 0 0 Z " fill="#000000" transform="translate(953,451)"/>
<path d="M0 0 C2.66010658 1.59606395 2.97557088 2.92976629 4 5.875 C4 9 4 9 2 11.9375 C-1 14 -1 14 -4.625 14.0625 C-8 13 -8 13 -10 11.3125 C-11.37694267 8.12832007 -10.980224 6.29075199 -10 3 C-7.61338866 -0.97768557 -4.27600952 -0.45814388 0 0 Z " fill="#000000" transform="translate(851,451)"/>
<path d="M0 0 C2.4375 1.625 2.4375 1.625 4 4 C4.5625 7 4.5625 7 4 10 C1.9375 12.4375 1.9375 12.4375 -1 14 C-4.625 14.0625 -4.625 14.0625 -8 13 C-10.0625 10.875 -10.0625 10.875 -11 8 C-10.3125 4.25 -10.3125 4.25 -9 1 C-5.90826248 -0.54586876 -3.40570448 -0.29359521 0 0 Z " fill="#000000" transform="translate(817,451)"/>
<path d="M0 0 C2 1.0625 2 1.0625 3 3 C3.49891602 6.92005446 3.55253414 9.11594538 1.4375 12.5 C-1 14 -1 14 -4.5625 13.9375 C-8 13 -8 13 -9.9375 11.875 C-11.64550843 8.86086748 -11.36204814 6.37911601 -11 3 C-8.82986072 -1.20464485 -4.15736573 -0.61494368 0 0 Z " fill="#000000" transform="translate(750,451)"/>
<path d="M0 0 C2.12579971 1.41719981 2.77765895 2.5394364 3.875 4.8125 C4.07575968 8.32579444 3.01548966 10.16571766 1 13 C-2.375 14.125 -2.375 14.125 -6 14 C-8.9375 12.4375 -8.9375 12.4375 -11 10 C-11.68551032 6.34394496 -11.48491197 4.7370662 -9.4375 1.625 C-6.1005787 -0.5996142 -3.93094707 -0.50030235 0 0 Z " fill="#000000" transform="translate(919,451)"/>
<path d="M0 0 C2.4375 1.0625 2.4375 1.0625 4 3 C4.5625 6.4375 4.5625 6.4375 4 10 C1.9375 12.5 1.9375 12.5 -1 14 C-4.6875 13.9375 -4.6875 13.9375 -8 13 C-10.46324069 9.30513897 -10.38991688 7.36706908 -10 3 C-7.77455145 -1.05817089 -4.20489208 -0.44262022 0 0 Z " fill="#000000" transform="translate(783,451)"/>
<path d="M0 0 C4.75 0.875 4.75 0.875 7 2 C8.36817102 8.04275534 8.36817102 8.04275534 7.0625 11.4375 C6.711875 11.953125 6.36125 12.46875 6 13 C3.87838666 10.87838666 3.07013751 9.2266841 1.875 6.5 C1.52179687 5.7059375 1.16859375 4.911875 0.8046875 4.09375 C0 2 0 2 0 0 Z " fill="#000000" transform="translate(847,517)"/>
</svg>
