<?xml version="1.0" encoding="UTF-8"?>
<svg version="1.1" xmlns="http://www.w3.org/2000/svg" width="1080" height="1080">
<path d="M0 0 C54.38025503 -0.02202494 108.76050587 -0.04049696 163.14076408 -0.05106533 C169.55355953 -0.05231611 175.96635496 -0.05361043 182.37915039 -0.05493164 C183.65588059 -0.05519395 184.93261078 -0.05545626 186.24802978 -0.05572652 C206.94994013 -0.06008377 227.65184771 -0.06797161 248.35375642 -0.0771528 C269.57878399 -0.08648782 290.80381011 -0.09205529 312.02883965 -0.09408849 C325.13717543 -0.09546404 338.2455034 -0.09981631 351.35383678 -0.10791647 C360.32955856 -0.11318207 369.30527627 -0.11480472 378.28099947 -0.11350138 C383.46783622 -0.1128577 388.65465927 -0.11387879 393.84149361 -0.11920547 C398.5817199 -0.12403827 403.32192318 -0.12433945 408.06215049 -0.12089889 C409.78490297 -0.12047308 411.50765685 -0.12176982 413.23040657 -0.12488318 C415.5564116 -0.12884524 417.88233145 -0.12676461 420.20833492 -0.12304783 C421.50507985 -0.12342755 422.80182478 -0.12380727 424.13786501 -0.1241985 C427 0 427 0 428 1 C428.09911609 3.13663026 428.12632367 5.27659947 428.12698364 7.41552734 C428.12854363 8.09354589 428.13010362 8.77156445 428.13171089 9.47012901 C428.13572291 11.75875348 428.13253048 14.04731246 428.12939453 16.3359375 C428.13074848 17.96991007 428.13252838 19.60388233 428.13470459 21.237854 C428.13927965 25.68814079 428.13748907 30.1384045 428.1343255 34.58869171 C428.13180228 39.23539799 428.13413934 43.88210224 428.13571167 48.52880859 C428.13753348 56.33366248 428.13512677 64.13850692 428.13037109 71.94335938 C428.12492845 80.98027237 428.1266911 90.0171628 428.1321975 99.05407524 C428.13672832 106.79842256 428.13737933 114.54276307 428.13475883 122.28711128 C428.13319588 126.91884862 428.13300277 131.55057534 428.13629532 136.18231201 C428.13917358 140.53573417 428.13719918 144.8891271 428.13140106 149.24254608 C428.13007322 150.84500836 428.13046798 152.44747307 428.13266373 154.04993439 C428.1353743 156.22814757 428.13199528 158.40626562 428.12698364 160.58447266 C428.12660662 161.80639313 428.12622959 163.0283136 428.12584114 164.28726196 C428 167 428 167 427 168 C424.73786892 168.09816213 422.47259471 168.12371086 420.20833492 168.12304783 C419.12520081 168.1247786 419.12520081 168.1247786 418.0201852 168.12654433 C415.56982577 168.12921788 413.11953038 168.12468281 410.66917419 168.12025452 C408.90702123 168.12069007 407.14486832 168.12156468 405.38271576 168.12284368 C400.51649491 168.12509181 395.65029584 168.12106305 390.78407776 168.11606562 C385.54546426 168.11176583 380.30685208 168.11320721 375.0682373 168.1139679 C365.98402551 168.11449343 356.89982088 168.11134355 347.81561089 168.10573006 C334.6812051 168.09761905 321.54680279 168.09500025 308.41239477 168.09374207 C287.10508739 168.09155092 265.79778382 168.08488913 244.49047852 168.07543945 C223.78670267 168.06626696 203.08292786 168.05918533 182.37915039 168.05493164 C181.103966 168.05466892 179.82878161 168.05440619 178.51495527 168.05413551 C172.11802749 168.05283052 165.7210997 168.0515668 159.3241719 168.05032361 C106.21611121 168.03994903 53.10805758 168.02150968 0 168 C0 112.56 0 57.12 0 0 Z " fill="#B2B2B2" transform="translate(449,425)"/>
<path d="M0 0 C12.21916378 0.16653894 23.6956269 2.98469529 35.13012695 7.25097656 C35.13012695 5.93097656 35.13012695 4.61097656 35.13012695 3.25097656 C69.45012695 3.25097656 103.77012695 3.25097656 139.13012695 3.25097656 C139.13012695 12.82097656 139.13012695 22.39097656 139.13012695 32.25097656 C127.58012695 32.25097656 116.03012695 32.25097656 104.13012695 32.25097656 C104.13012695 71.85097656 104.13012695 111.45097656 104.13012695 152.25097656 C92.91012695 152.25097656 81.69012695 152.25097656 70.13012695 152.25097656 C70.13012695 112.98097656 70.13012695 73.71097656 70.13012695 33.25097656 C53.79512695 33.74597656 53.79512695 33.74597656 37.13012695 34.25097656 C35.81012695 36.56097656 34.49012695 38.87097656 33.13012695 41.25097656 C29.67512437 39.91594873 26.38575119 38.39252219 23.06762695 36.75097656 C17.17853117 34.06402707 11.5478492 32.89274879 5.13012695 32.25097656 C4.31286133 32.1671875 3.4955957 32.08339844 2.65356445 31.99707031 C-2.90195822 31.70115759 -7.31915105 32.98798885 -11.86987305 36.25097656 C-14.73375215 40.54679521 -14.13955708 44.68897828 -13.61987305 49.62597656 C-12.56080031 51.92063416 -11.13455865 52.16158469 -8.86987305 53.25097656 C-7.20120087 54.26852835 -5.53481275 55.28982904 -3.86987305 56.31347656 C1.65005544 59.57125031 7.32186682 62.18813986 13.19262695 64.75097656 C20.61305114 68.00993269 27.56619403 71.43664293 34.13012695 76.25097656 C34.77852539 76.71761719 35.42692383 77.18425781 36.0949707 77.66503906 C42.98195119 83.06009161 49.514535 91.49740561 51.13012695 100.25097656 C51.67638374 107.75760207 51.73000863 115.12838406 49.13012695 122.25097656 C48.80012695 123.19714844 48.47012695 124.14332031 48.13012695 125.11816406 C43.43253304 137.51115853 36.47994358 143.89155286 24.58325195 149.43847656 C14.82580212 153.5596355 5.87199103 154.57448345 -4.68237305 154.50097656 C-6.33076172 154.51257813 -6.33076172 154.51257813 -8.01245117 154.52441406 C-26.90915153 154.47987264 -43.18923678 148.70473407 -58.86987305 138.25097656 C-59.19987305 142.87097656 -59.52987305 147.49097656 -59.86987305 152.25097656 C-88.24987305 152.25097656 -116.62987305 152.25097656 -145.86987305 152.25097656 C-145.86987305 103.08097656 -145.86987305 53.91097656 -145.86987305 3.25097656 C-117.81987305 3.25097656 -89.76987305 3.25097656 -60.86987305 3.25097656 C-60.86987305 12.82097656 -60.86987305 22.39097656 -60.86987305 32.25097656 C-77.69987305 32.25097656 -94.52987305 32.25097656 -111.86987305 32.25097656 C-111.86987305 42.15097656 -111.86987305 52.05097656 -111.86987305 62.25097656 C-95.69987305 62.25097656 -79.52987305 62.25097656 -62.86987305 62.25097656 C-62.86987305 72.15097656 -62.86987305 82.05097656 -62.86987305 92.25097656 C-79.03987305 92.25097656 -95.20987305 92.25097656 -111.86987305 92.25097656 C-111.86987305 102.15097656 -111.86987305 112.05097656 -111.86987305 122.25097656 C-94.70987305 122.25097656 -77.54987305 122.25097656 -59.86987305 122.25097656 C-59.37487305 126.21097656 -59.37487305 126.21097656 -58.86987305 130.25097656 C-58.49701172 129.58453125 -58.12415039 128.91808594 -57.73999023 128.23144531 C-56.04872306 125.22894741 -54.33473721 122.24005458 -52.61987305 119.25097656 C-52.03334961 118.20167969 -51.44682617 117.15238281 -50.8425293 116.07128906 C-50.26889648 115.07871094 -49.69526367 114.08613281 -49.10424805 113.06347656 C-48.58056641 112.14179687 -48.05688477 111.22011719 -47.51733398 110.27050781 C-46.97367188 109.6040625 -46.43000977 108.93761719 -45.86987305 108.25097656 C-41.38309668 108.25097656 -40.49685323 108.89960085 -36.93237305 111.37597656 C-25.19408228 119.12797529 -13.2739879 124.53179953 0.9621582 121.68457031 C6.73012568 120.1131503 6.73012568 120.1131503 11.13012695 116.25097656 C12.48819107 112.1767842 12.77044071 108.50717974 12.13012695 104.25097656 C5.69544904 95.32545559 -6.63269339 90.82794394 -16.3425293 86.48339844 C-29.82532655 80.26264045 -40.75492938 70.97371399 -46.86987305 57.25097656 C-49.77389681 48.53890528 -49.47182404 36.560696 -45.67041016 28.19824219 C-44.22030469 25.44109099 -42.60121963 22.83910862 -40.86987305 20.25097656 C-40.43803711 19.56003906 -40.00620117 18.86910156 -39.5612793 18.15722656 C-33.62016062 10.01363709 -22.31081717 3.95488513 -12.6628418 1.68847656 C-8.35181627 0.63654876 -4.77701882 0.0020218 0 0 Z " fill="#242325" transform="translate(734.869873046875,430.7490234375)"/>
<path d="M0 0 C45.54 0 91.08 0 138 0 C138 19.8 138 39.6 138 60 C153.51 60 169.02 60 185 60 C185 40.2 185 20.4 185 0 C196.55 0 208.1 0 220 0 C220 49.5 220 99 220 150 C208.45 150 196.9 150 185 150 C185 130.2 185 110.4 185 90 C169.49 90 153.98 90 138 90 C138 109.8 138 129.6 138 150 C126.45 150 114.9 150 103 150 C103 110.73 103 71.46 103 31 C92.11 31 81.22 31 70 31 C70 70.27 70 109.54 70 150 C58.45 150 46.9 150 35 150 C35 110.73 35 71.46 35 31 C23.45 31 11.9 31 0 31 C0 20.77 0 10.54 0 0 Z " fill="#232224" transform="translate(135,433)"/>
<path d="M0 0 C11.55 0 23.1 0 35 0 C45.63355159 12.80223645 45.63355159 12.80223645 48 18.40234375 C50.42585757 23.8244425 53.13884983 28.61918087 56.5 33.5 C57.37422294 34.83826154 58.24389485 36.17950529 59.109375 37.5234375 C59.56376953 38.2256543 60.01816406 38.92787109 60.48632812 39.65136719 C64.1953124 45.40627505 67.87440584 51.1805407 71.55273438 56.95507812 C78.62005251 68.02499441 85.82418235 78.9970796 93 90 C93.33 60.3 93.66 30.6 94 0 C105.22 0 116.44 0 128 0 C128 49.17 128 98.34 128 149 C116.78 149 105.56 149 94 149 C86.07383161 137.6769023 86.07383161 137.6769023 82.5625 131.9375 C78.23082891 124.93762204 73.81720873 117.99270968 69.375 111.0625 C68.35780884 109.47501953 68.35780884 109.47501953 67.32006836 107.85546875 C65.21406285 104.56987335 63.10718294 101.28484038 61 98 C58.20728742 93.64650279 55.41579638 89.29222577 52.625 84.9375 C52.00802246 83.97658447 51.39104492 83.01566895 50.75537109 82.02563477 C45.43542443 73.72406327 40.22695984 65.36313574 35 57 C34.67 87.36 34.34 117.72 34 149 C22.78 149 11.56 149 0 149 C0 99.83 0 50.66 0 0 Z " fill="#242325" transform="translate(453,434)"/>
<path d="M0 0 C28.38 0 56.76 0 86 0 C86 10.23 86 20.46 86 31 C69.17 31 52.34 31 35 31 C35 40.57 35 50.14 35 60 C51.17 60 67.34 60 84 60 C84 69.9 84 79.8 84 90 C67.83 90 51.66 90 35 90 C35 99.9 35 109.8 35 120 C51.83 120 68.66 120 86 120 C86 129.9 86 139.8 86 150 C57.62 150 29.24 150 0 150 C0 100.5 0 51 0 0 Z " fill="#232224" transform="translate(362,433)"/>
<path d="M0 0 C4.5478125 -0.1546875 4.5478125 -0.1546875 9.1875 -0.3125 C10.13391357 -0.35802002 11.08032715 -0.40354004 12.05541992 -0.45043945 C16.50595306 -0.52366232 18.42183927 -0.43618202 22.0859375 2.328125 C24.40748866 5.56882091 24.58179952 7.09363178 24 11 C23 13.375 23 13.375 22 15 C22.72896484 15.60521484 22.72896484 15.60521484 23.47265625 16.22265625 C25.83280041 18.96911556 25.47118312 21.34723048 25.36328125 24.83984375 C25 27 25 27 23.125 29.5 C20.03551652 31.68081187 18.3820715 32.12254714 14.6484375 32.09765625 C13.49867432 32.09390991 13.49867432 32.09390991 12.32568359 32.09008789 C10.86509521 32.07643188 10.86509521 32.07643188 9.375 32.0625 C6.28125 32.041875 3.1875 32.02125 0 32 C0 21.44 0 10.88 0 0 Z M5 4 C5 6.97 5 9.94 5 13 C6.77007714 13.08114106 8.54122098 13.13925505 10.3125 13.1875 C11.29863281 13.22230469 12.28476562 13.25710938 13.30078125 13.29296875 C16.02059417 13.2287894 16.02059417 13.2287894 17.85546875 11.6171875 C19.19858062 10.04961563 19.19858062 10.04961563 19 7.9375 C18.12641786 5.8311617 18.12641786 5.8311617 15.9375 4.75 C12.15794174 3.7850064 8.89689873 3.86790174 5 4 Z M5 18 C5 21.3 5 24.6 5 28 C6.93681161 28.08107583 8.8745934 28.13922475 10.8125 28.1875 C11.89144531 28.22230469 12.97039063 28.25710938 14.08203125 28.29296875 C16.98607652 28.2486635 16.98607652 28.2486635 18.86328125 26.6484375 C20.47648428 24.30901592 20.42651028 22.77231681 20 20 C16.47320901 17.64880601 14.97120515 17.78556548 10.8125 17.875 C9.72582031 17.89304687 8.63914062 17.91109375 7.51953125 17.9296875 C6.68808594 17.95289063 5.85664062 17.97609375 5 18 Z " fill="#000000" transform="translate(799,611)"/>
<path d="M0 0 C0.99 0 1.98 0 3 0 C4.65 0 6.3 0 8 0 C8 11.22 8 22.44 8 34 C6.35 34 4.7 34 3 34 C2.67 30.7 2.34 27.4 2 24 C1.67 24.33 1.34 24.66 1 25 C-6.11943794 25.71194379 -6.11943794 25.71194379 -9.9375 22.625 C-13.98221282 17.47718368 -13.71400765 12.37625436 -13 6 C-10.48281223 -0.39883246 -6.11768428 -0.59203396 0 0 Z M-6.125 5.4375 C-8.5231827 8.71501636 -8.56361752 10.89100697 -8.40625 14.87109375 C-7.83210694 17.87982422 -6.44336977 19.24382798 -4 21 C-1.08482708 19.92598892 0.77810176 19.22189824 3 17 C3.71424335 10.99634425 3.71424335 10.99634425 0.625 6 C-2.70684867 3.44240161 -2.70684867 3.44240161 -6.125 5.4375 Z " fill="#000000" transform="translate(925,619)"/>
<path d="M0 0 C3.25304353 1.34364841 4.57754673 2.25567757 6.3125 5.3125 C7 8 7 8 7 14 C1.39 14 -4.22 14 -10 14 C-7.69023104 18.88432172 -7.69023104 18.88432172 -5.0625 19.9375 C-2.47795669 20.01581949 -1.14918308 19.40808547 1 18 C1.33 17.34 1.66 16.68 2 16 C3.65 16 5.3 16 7 16 C6.18820936 19.04421489 5.47032662 21.43560806 3.4375 23.875 C-0.2726509 25.58737734 -3.9799941 25.54496559 -8 25 C-11.01318851 23.80773116 -11.8742864 23.18408062 -13.75 20.4375 C-15.67739058 15.13717591 -16.02369745 10.35450413 -13.75 5.125 C-9.72403321 0.23632604 -6.36795703 -0.92417667 0 0 Z M-7.8125 6.375 C-10.1066974 8.55853951 -10.1066974 8.55853951 -10 10 C-6.04 10 -2.08 10 2 10 C0.64790829 4.99468773 0.64790829 4.99468773 -2.3125 3.875 C-5.27026884 3.73920548 -5.27026884 3.73920548 -7.8125 6.375 Z " fill="#000000" transform="translate(981,619)"/>
<path d="M0 0 C3.58193668 2.18030928 5.40233089 4.17400292 7 8 C7.74148241 12.74203866 7.43787689 16.16954383 5.1875 20.4375 C2.19331495 23.94497391 0.77639846 24.93738722 -3.875 25.3125 C-7.66292835 25.20805345 -10.01358167 24.45940333 -13 22 C-15.92755261 17.34673217 -15.51224821 12.31161994 -15 7 C-13.76669872 3.97841187 -12.84362995 2.65615663 -10.3125 0.6875 C-6.84416773 -0.34362581 -3.55274495 -0.57917512 0 0 Z M-8.75 5.4375 C-10.60989028 9.25027507 -10.85410937 12.8438428 -10 17 C-7.6816144 19.60910963 -7.6816144 19.60910963 -5 21 C-1.34683329 19.75023244 -0.21934164 19.32901247 2 16 C2.58090832 11.51870724 2.53532886 9.69890157 -0.25 6.0625 C-3.36071068 3.72946699 -5.4972221 2.7655753 -8.75 5.4375 Z " fill="#000000" transform="translate(845,619)"/>
<path d="M0 0 C1.65 0 3.3 0 5 0 C5.33 6.27 5.66 12.54 6 19 C7.32 19.33 8.64 19.66 10 20 C13.24849977 18.27773504 13.24849977 18.27773504 14 15 C14.22718496 12.43365139 14.41608184 9.88321893 14.5625 7.3125 C14.60568359 6.61060547 14.64886719 5.90871094 14.69335938 5.18554688 C14.7991736 3.45724794 14.90006581 1.7286489 15 0 C16.65 0 18.3 0 20 0 C20 7.92 20 15.84 20 24 C17.69 24 15.38 24 13 24 C12.34 24.33 11.68 24.66 11 25 C7.09091428 25.25494037 4.30875166 25.20583444 1 23 C-0.2263757 20.54724859 -0.11415314 18.9494219 -0.09765625 16.2109375 C-0.09443359 15.26992188 -0.09121094 14.32890625 -0.08789062 13.359375 C-0.07951172 12.37453125 -0.07113281 11.3896875 -0.0625 10.375 C-0.05798828 9.38242187 -0.05347656 8.38984375 -0.04882812 7.3671875 C-0.03702145 4.9113984 -0.020554 2.45572896 0 0 Z " fill="#000000" transform="translate(940,619)"/>
<path d="M0 0 C1.65 0 3.3 0 5 0 C5.33 6.6 5.66 13.2 6 20 C11.74813012 19.63936201 11.74813012 19.63936201 14 17 C14.30675232 14.10032243 14.51173371 11.28216822 14.625 8.375 C14.66367187 7.57320312 14.70234375 6.77140625 14.7421875 5.9453125 C14.83653931 3.96392444 14.91936215 1.98199355 15 0 C16.65 0 18.3 0 20 0 C20 7.92 20 15.84 20 24 C18.02 24 16.04 24 14 24 C13.34 24.33 12.68 24.66 12 25 C7.86470434 25.46814668 5.75598226 25.52395888 2.2890625 23.12109375 C-0.97905449 18.66507758 -0.55919989 15.05796694 -0.3125 9.6875 C-0.28994141 8.75615234 -0.26738281 7.82480469 -0.24414062 6.86523438 C-0.18542078 4.5751604 -0.10336858 2.28842125 0 0 Z " fill="#000000" transform="translate(858,619)"/>
<path d="M0 0 C1.65 0 3.3 0 5 0 C5 1.98 5 3.96 5 6 C6.32 6 7.64 6 9 6 C9 7.32 9 8.64 9 10 C7.68 10 6.36 10 5 10 C5 15.28 5 20.56 5 26 C6.32 26.33 7.64 26.66 9 27 C8.67 28.32 8.34 29.64 8 31 C1.125 30.125 1.125 30.125 0 29 C-0.08651611 27.58429877 -0.10704904 26.164405 -0.09765625 24.74609375 C-0.09443359 23.89208984 -0.09121094 23.03808594 -0.08789062 22.15820312 C-0.07951172 21.26037109 -0.07113281 20.36253906 -0.0625 19.4375 C-0.05798828 18.53580078 -0.05347656 17.63410156 -0.04882812 16.70507812 C-0.03700225 14.46998686 -0.0205222 12.23502563 0 10 C-0.99 10 -1.98 10 -3 10 C-3 8.68 -3 7.36 -3 6 C-2.01 6 -1.02 6 0 6 C0 4.02 0 2.04 0 0 Z " fill="#000000" transform="translate(886,613)"/>
<path d="M0 0 C1.65 0 3.3 0 5 0 C5 7.92 5 15.84 5 24 C3.35 24 1.7 24 0 24 C0 16.08 0 8.16 0 0 Z " fill="#000000" transform="translate(900,619)"/>
<path d="M0 0 C1.98 0 3.96 0 6 0 C6 1.65 6 3.3 6 5 C4.02 5 2.04 5 0 5 C0 3.35 0 1.7 0 0 Z " fill="#000000" transform="translate(995,638)"/>
<path d="M0 0 C1.65 0 3.3 0 5 0 C5 1.65 5 3.3 5 5 C3.35 5 1.7 5 0 5 C0 3.35 0 1.7 0 0 Z " fill="#000000" transform="translate(900,611)"/>
</svg>
