<?xml version="1.0" encoding="UTF-8"?>
<svg version="1.1" xmlns="http://www.w3.org/2000/svg" width="1080" height="1080">
<path d="M0 0 C181.83 0 363.66 0 551 0 C551 72.27 551 144.54 551 219 C369.17 219 187.34 219 0 219 C-0.33 178.74 -0.66 138.48 -1 97 C-2.65 100.3 -4.3 103.6 -6 107 C-16.11105277 120.72343967 -30.3552827 128.86926156 -47 132 C-60.86322073 133.9804601 -74.99603231 133 -89 133 C-89 156.43 -89 179.86 -89 204 C-103.85 204 -118.7 204 -134 204 C-134.33 178.26 -134.66 152.52 -135 126 C-137.475 135.405 -137.475 135.405 -140 145 C-141.56062724 148.90156811 -143.03828519 152.34793151 -145 156 C-145.47824219 156.93585938 -145.95648438 157.87171875 -146.44921875 158.8359375 C-157.74884869 179.68416514 -177.3606539 196.87165312 -200.06640625 204.2265625 C-227.80944061 211.54097103 -257.4471298 209.48719471 -282.58203125 195.1171875 C-287.43447563 192.20059458 -291.73095562 188.70307259 -296 185 C-297.5159375 183.8553125 -297.5159375 183.8553125 -299.0625 182.6875 C-315.73088354 167.4377023 -326.96685408 144.54216154 -329 122 C-330.45558019 88.28797445 -324.65009605 61.99669787 -301.765625 36.51171875 C-284.46316687 18.33282892 -261.86593574 7.69678197 -236.66015625 6.796875 C-207.88498794 6.30778748 -183.37464593 15.30225332 -162.3125 35.25 C-147.39353292 50.85206997 -140.52881545 67.99050129 -135 89 C-134.505 50.39 -134.505 50.39 -134 11 C-113.42863735 10.83956476 -113.42863735 10.83956476 -104.56640625 10.8046875 C-98.55177449 10.78090357 -92.53738947 10.75296486 -86.52294922 10.69824219 C-81.66644106 10.65433852 -76.81019799 10.63077033 -71.95350647 10.62049103 C-70.11340673 10.61317865 -68.27331921 10.59890297 -66.43333435 10.57707977 C-45.67366983 10.34096211 -26.72560605 14.00343729 -11.0859375 28.7890625 C-6.82885638 33.30124961 -4.13957641 37.50574128 -1 43 C-0.67 28.81 -0.34 14.62 0 0 Z M-89 47 C-89 63.5 -89 80 -89 97 C-68.01766638 97.66365096 -68.01766638 97.66365096 -50 89 C-45.14147225 84.01361626 -43.70618482 78.61306297 -43.5625 71.75 C-43.70418921 65.20992449 -44.83650347 60.15081338 -49 55 C-60.86640314 45.20970856 -73.69313573 47 -89 47 Z M-263.78515625 61.7734375 C-276.10744957 74.16092814 -281.18876303 90.79714478 -281.375 108 C-281.21353538 124.78618902 -276.8350768 139.63387154 -265.19140625 151.90625 C-255.58332286 161.01495275 -244.05220139 164.85313081 -231 165 C-217.49891287 164.3026298 -206.75175236 160.4890789 -197 151 C-185.53591607 137.75162285 -181.11320488 120.12612866 -182.2109375 102.87890625 C-183.58490821 86.81021814 -188.56299355 71.92029834 -201 61 C-201.54914063 60.50886719 -202.09828125 60.01773438 -202.6640625 59.51171875 C-220.01221104 45.12631986 -247.27148971 47.48122043 -263.78515625 61.7734375 Z " fill="#FDD633" transform="translate(442,400)"/>
<path d="M0 0 C1.1559668 0.00491455 2.31193359 0.0098291 3.50292969 0.01489258 C18.16338793 0.21402809 31.02409588 2.85920564 44.625 8.3125 C44.955 6.6625 45.285 5.0125 45.625 3.3125 C90.505 3.3125 135.385 3.3125 181.625 3.3125 C181.625 16.1825 181.625 29.0525 181.625 42.3125 C166.445 42.3125 151.265 42.3125 135.625 42.3125 C135.625 93.1325 135.625 143.9525 135.625 196.3125 C121.105 196.3125 106.585 196.3125 91.625 196.3125 C91.625 145.4925 91.625 94.6725 91.625 42.3125 C77.435 42.6425 63.245 42.9725 48.625 43.3125 C46.975 46.6125 45.325 49.9125 43.625 53.3125 C42.305 52.6525 40.985 51.9925 39.625 51.3125 C38.39072753 50.75151164 37.15234858 50.19947618 35.91015625 49.65625 C34.88051758 49.20572266 34.88051758 49.20572266 33.83007812 48.74609375 C33.12302734 48.43800781 32.41597656 48.12992187 31.6875 47.8125 C30.98431641 47.50441406 30.28113281 47.19632812 29.55664062 46.87890625 C28.18808032 46.28120325 26.81784138 45.68732631 25.44580078 45.09765625 C23.97732345 44.46442708 22.51663761 43.81314647 21.05859375 43.15625 C12.49923089 40.18863784 -1.83566655 39.0668668 -10.25 43.0625 C-14.18844054 45.89817719 -15.85470967 47.75162902 -17.375 52.3125 C-17.76773833 57.189762 -17.98006815 62.01413755 -15.375 66.3125 C-14.06328845 67.02076197 -12.7264264 67.68331887 -11.375 68.3125 C-10.16155125 68.99224988 -8.95332596 69.68139324 -7.75 70.37890625 C0.30040458 74.9852576 8.37279227 79.22180477 16.875 82.9375 C37.09564835 91.84511263 54.86109659 102.60966755 64.625 123.3125 C69.73288003 138.09846851 66.30509054 154.53708836 60.12109375 168.46484375 C52.47458699 183.01916079 39.12098071 190.60998558 24.125 196 C13.94519105 199.12161745 3.85559296 199.76047319 -6.75 199.75 C-7.45397919 199.74940582 -8.15795837 199.74881165 -8.88327026 199.74819946 C-34.60940552 199.62120085 -56.55750656 191.46959098 -77.375 176.3125 C-77.375 182.9125 -77.375 189.5125 -77.375 196.3125 C-113.675 196.3125 -149.975 196.3125 -187.375 196.3125 C-187.375 132.6225 -187.375 68.9325 -187.375 3.3125 C-151.075 3.3125 -114.775 3.3125 -77.375 3.3125 C-77.375 16.1825 -77.375 29.0525 -77.375 42.3125 C-99.155 42.3125 -120.935 42.3125 -143.375 42.3125 C-143.375 54.8525 -143.375 67.3925 -143.375 80.3125 C-122.585 80.3125 -101.795 80.3125 -80.375 80.3125 C-80.375 93.1825 -80.375 106.0525 -80.375 119.3125 C-101.165 119.3125 -121.955 119.3125 -143.375 119.3125 C-143.375 131.8525 -143.375 144.3925 -143.375 157.3125 C-121.595 157.3125 -99.815 157.3125 -77.375 157.3125 C-77.045 161.2725 -76.715 165.2325 -76.375 169.3125 C-75.84543701 168.40894775 -75.31587402 167.50539551 -74.77026367 166.57446289 C-72.80558224 163.22766355 -70.82927875 159.88785588 -68.84936523 156.55004883 C-67.99363025 155.10369274 -67.14107073 153.65545304 -66.29174805 152.20532227 C-65.07127 150.12274355 -63.83957952 148.04717789 -62.60546875 145.97265625 C-62.22722458 145.32160416 -61.84898041 144.67055206 -61.45927429 143.99977112 C-58.71661512 139.42637171 -58.71661512 139.42637171 -55.375 138.3125 C-53.02107701 139.73692519 -50.84674344 141.20320196 -48.625 142.8125 C-41.22238414 147.95644548 -33.70135302 151.88680047 -25.375 155.3125 C-24.06982422 155.85390625 -24.06982422 155.85390625 -22.73828125 156.40625 C-11.97517582 160.24894549 -0.3721585 159.42749025 9.9921875 154.84375 C13.0477522 153.06662632 14.82316494 151.75134291 16.16796875 148.46484375 C17.319016 143.04409986 17.96068108 137.49384947 15.765625 132.265625 C9.85070655 124.30604338 -1.54005258 120.14823748 -10.24609375 116.078125 C-30.93229472 106.40560312 -50.33612001 96.90969996 -59.375 74.3125 C-63.31243631 63.08248799 -63.17961142 47.98122709 -58.69921875 36.9453125 C-49.49894055 18.65331395 -35.27665957 8.16367386 -16.25390625 1.1640625 C-10.81611545 -0.02973246 -5.55197086 -0.02768763 0 0 Z " fill="#252425" transform="translate(809.375,407.6875)"/>
<path d="M0 0 C17.93882387 15.61499519 26.00924945 35.23514791 32 58 C32.495 19.39 32.495 19.39 33 -20 C53.57136265 -20.16043524 53.57136265 -20.16043524 62.43359375 -20.1953125 C68.44822551 -20.21909643 74.46261053 -20.24703514 80.47705078 -20.30175781 C85.33355894 -20.34566148 90.18980201 -20.36922967 95.04649353 -20.37950897 C96.88659327 -20.38682135 98.72668079 -20.40109703 100.56666565 -20.42292023 C121.32633017 -20.65903789 140.27439395 -16.99656271 155.9140625 -2.2109375 C167.5261142 10.09696749 170.53420821 25.1679782 170.35131836 41.63183594 C169.77475521 59.15774855 164.93839162 73.61642791 152 86 C131.14541261 104.79019389 104.59120819 102 78 102 C78 125.43 78 148.86 78 173 C63.15 173 48.3 173 33 173 C32.67 147.26 32.34 121.52 32 95 C29.525 104.405 29.525 104.405 27 114 C25.43937276 117.90156811 23.96171481 121.34793151 22 125 C21.52175781 125.93585938 21.04351562 126.87171875 20.55078125 127.8359375 C9.25115131 148.68416514 -10.3606539 165.87165312 -33.06640625 173.2265625 C-60.80944061 180.54097103 -90.4471298 178.48719471 -115.58203125 164.1171875 C-120.43447563 161.20059458 -124.73095562 157.70307259 -129 154 C-130.5159375 152.8553125 -130.5159375 152.8553125 -132.0625 151.6875 C-148.73088354 136.4377023 -159.96685408 113.54216154 -162 91 C-163.45558019 57.28797445 -157.65009605 30.99669787 -134.765625 5.51171875 C-98.38248777 -32.71435517 -39.74009198 -33.15893025 0 0 Z M78 16 C78 32.5 78 49 78 66 C98.98233362 66.66365096 98.98233362 66.66365096 117 58 C121.85852775 53.01361626 123.29381518 47.61306297 123.4375 40.75 C123.29581079 34.20992449 122.16349653 29.15081338 118 24 C106.13359686 14.20970856 93.30686427 16 78 16 Z M-96.78515625 30.7734375 C-109.10744957 43.16092814 -114.18876303 59.79714478 -114.375 77 C-114.21353538 93.78618902 -109.8350768 108.63387154 -98.19140625 120.90625 C-88.58332286 130.01495275 -77.05220139 133.85313081 -64 134 C-50.49891287 133.3026298 -39.75175236 129.4890789 -30 120 C-18.53591607 106.75162285 -14.11320488 89.12612866 -15.2109375 71.87890625 C-16.58490821 55.81021814 -21.56299355 40.92029834 -34 30 C-34.54914063 29.50886719 -35.09828125 29.01773438 -35.6640625 28.51171875 C-53.01221104 14.12631986 -80.27148971 16.48122043 -96.78515625 30.7734375 Z " fill="#232224" transform="translate(275,431)"/>
<path d="M0 0 C14.52 0 29.04 0 44 0 C54.88868613 12.21487226 54.88868613 12.21487226 56.984375 17.87109375 C59.89663161 25.02085822 63.70801871 31.10828225 68 37.5 C69.33841183 39.58007435 70.67174911 41.66342263 72 43.75 C72.99 45.296875 72.99 45.296875 74 46.875 C76 50 78 53.125 80 56.25 C80.66032227 57.2817334 81.32064453 58.3134668 82.00097656 59.37646484 C83.33112862 61.45486805 84.66120703 63.53331839 85.99121094 65.61181641 C89.37260811 70.89597431 92.75537502 76.17924691 96.140625 81.4609375 C96.82898438 82.53537109 97.51734375 83.60980469 98.2265625 84.71679688 C99.507317 86.71581234 100.78851135 88.71454613 102.0703125 90.71289062 C108.09219846 100.11401088 114.03779375 109.5598401 120 119 C120.33 79.73 120.66 40.46 121 0 C135.52 0 150.04 0 165 0 C165 63.69 165 127.38 165 193 C150.15 193 135.3 193 120 193 C115.05 185.08 115.05 185.08 110 177 C107.3613563 172.84923956 104.71832342 168.70218326 102.0625 164.5625 C101.03020264 162.95121216 101.03020264 162.95121216 99.97705078 161.30737305 C95.69411038 154.62684641 91.39028944 147.96022422 87.07128906 141.30297852 C83.45497714 135.72101743 79.88007189 130.11321165 76.3125 124.5 C71.09163454 116.28635104 65.86511538 108.0763856 60.625 99.875 C59.98344971 98.86888672 59.34189941 97.86277344 58.6809082 96.82617188 C54.2034246 89.82306163 49.61277836 82.91916753 45 76 C44.67 114.61 44.34 153.22 44 193 C29.48 193 14.96 193 0 193 C0 129.31 0 65.62 0 0 Z " fill="#252425" transform="translate(447,411)"/>
<path d="M0 0 C2.990625 -0.0825 5.98125 -0.165 9.0625 -0.25 C9.99070557 -0.28641602 10.91891113 -0.32283203 11.87524414 -0.36035156 C17.78555036 -0.43865886 21.27165745 0.36188675 26 4 C28.93519986 8.31294673 29.4089348 11.84191026 29.375 17 C29.38273437 18.175625 29.39046875 19.35125 29.3984375 20.5625 C28.73750289 26.26468092 26.36426509 30.31765133 22 34 C19.17588235 34.94137255 17.47081968 35.11725382 14.55078125 35.09765625 C13.78677002 35.09515869 13.02275879 35.09266113 12.2355957 35.09008789 C11.27097412 35.08098389 10.30635254 35.07187988 9.3125 35.0625 C4.7028125 35.0315625 4.7028125 35.0315625 0 35 C0 23.45 0 11.9 0 0 Z M5 5 C5 13.58 5 22.16 5 31 C14.34195663 31.43694728 14.34195663 31.43694728 21.25 26.875 C24.24863256 21.94867509 24.29228205 17.75369231 23.375 12.25 C21.69359788 8.2757768 20.88418979 6.94209489 17 5 C13.04 5 9.08 5 5 5 Z " fill="#000000" transform="translate(196,632)"/>
<path d="M0 0 C2.33333333 0 4.66666667 0 7 0 C7.72832031 -0.05800781 8.45664062 -0.11601563 9.20703125 -0.17578125 C16.27597181 -0.54671516 16.27597181 -0.54671516 20.0625 2.3125 C23.42577572 6.9776889 23.66526712 11.42614038 23 17 C21.46046034 21.48143228 19.98012102 24.34658599 16 27 C12.57982443 27.39958487 9.12706959 27.5635348 6 26 C5.67 29.3 5.34 32.6 5 36 C3.35 36 1.7 36 0 36 C0 24.12 0 12.24 0 0 Z M10 4 C7.2912592 6.09927412 5.25313008 7.7298294 4.5625 11.1953125 C4.46990635 14.70229682 4.70776487 17.33435331 6.125 20.5625 C8.01386223 22.24367632 8.01386223 22.24367632 11 22.5 C14.03613136 22.27755457 14.03613136 22.27755457 15.8125 20.3125 C17.88170582 16.28299394 18.12685654 13.83161511 17.4375 9.3125 C16.31852949 5.72559742 16.31852949 5.72559742 12.875 4.5625 C11.92625 4.376875 10.9775 4.19125 10 4 Z " fill="#000000" transform="translate(263,641)"/>
<path d="M0 0 C3.90492147 2.03381327 4.76571447 3.37523858 6.3125 7.5 C7 11 7 11 7 15 C1.06 15.33 -4.88 15.66 -11 16 C-10.67 17.65 -10.34 19.3 -10 21 C-6.7 21 -3.4 21 0 21 C0.33 20.01 0.66 19.02 1 18 C2.65 18 4.3 18 6 18 C5.72960418 21.24474984 5.1742292 22.79204902 3.0625 25.3125 C-1.30534088 27.71926946 -5.11925665 27.92780904 -10 27 C-13.11709136 25.30375149 -15.38929088 23.22141825 -17 20 C-17.14851844 18.06640414 -17.22130833 16.12657903 -17.25 14.1875 C-17.27578125 13.14980469 -17.3015625 12.11210938 -17.328125 11.04296875 C-16.85783374 6.68157716 -15.27001603 4.20664724 -12.12109375 1.21484375 C-8.27704002 -0.98681502 -4.2860534 -0.61130097 0 0 Z M-8.25 4.5625 C-10.55336108 6.21924117 -10.55336108 6.21924117 -12 11 C-7.71 11 -3.42 11 1 11 C0.67 9.35 0.34 7.7 0 6 C-4.02025917 4.27042545 -4.02025917 4.27042545 -8.25 4.5625 Z " fill="#000000" transform="translate(249,641)"/>
<path d="M0 0 C1.65 0 3.3 0 5 0 C5 2.31 5 4.62 5 7 C6.32 7 7.64 7 9 7 C9 8.65 9 10.3 9 12 C7.68 12 6.36 12 5 12 C5 17.61 5 23.22 5 29 C6.32 29 7.64 29 9 29 C9 30.65 9 32.3 9 34 C3.49963716 34.36669086 3.49963716 34.36669086 1.3190918 32.76635742 C-0.35077419 30.53028849 -0.34871 29.31926354 -0.29296875 26.55078125 C-0.28330078 25.70322266 -0.27363281 24.85566406 -0.26367188 23.98242188 C-0.23853516 23.10134766 -0.21339844 22.22027344 -0.1875 21.3125 C-0.17396484 20.41982422 -0.16042969 19.52714844 -0.14648438 18.60742188 C-0.11114079 16.40433834 -0.06180493 14.20247418 0 12 C-1.32 12 -2.64 12 -4 12 C-4 10.35 -4 8.7 -4 7 C-2.68 7 -1.36 7 0 7 C0 4.69 0 2.38 0 0 Z " fill="#000000" transform="translate(294,634)"/>
<path d="M0 0 C1.65 0 3.3 0 5 0 C5 1.98 5 3.96 5 6 C3.35 6 1.7 6 0 6 C0 4.02 0 2.04 0 0 Z " fill="#000000" transform="translate(311,661)"/>
</svg>
