<?xml version="1.0" encoding="UTF-8"?>
<svg version="1.1" xmlns="http://www.w3.org/2000/svg" width="1080" height="1080">
<path d="M0 0 C137.61 0 275.22 0 417 0 C417 52.47 417 104.94 417 159 C279.39 159 141.78 159 0 159 C0 106.53 0 54.06 0 0 Z " fill="#21C35D" transform="translate(568,424)"/>
<path d="M0 0 C10.89 0 21.78 0 33 0 C37.34115632 6.20165188 41.56791809 12.34103344 45.5625 18.75 C46.6103058 20.41950391 47.65849849 22.08876506 48.70703125 23.7578125 C49.51648193 25.04800293 49.51648193 25.04800293 50.34228516 26.36425781 C53.12877433 30.79473456 55.93876956 35.21019438 58.75 39.625 C59.32371338 40.52597412 59.89742676 41.42694824 60.48852539 42.35522461 C62.32478619 45.23738969 64.16214654 48.11885025 66 51 C66.68771484 52.07813965 67.37542969 53.1562793 68.08398438 54.26708984 C70.22138959 57.61637082 72.36040281 60.96461896 74.5 64.3125 C75.15838867 65.34391113 75.81677734 66.37532227 76.49511719 67.43798828 C77.12579102 68.42395996 77.75646484 69.40993164 78.40625 70.42578125 C79.23092773 71.71609253 79.23092773 71.71609253 80.07226562 73.0324707 C82.67896219 77.04518559 85.34572926 81.01859389 88 85 C88.33 56.95 88.66 28.9 89 0 C131.24 0 173.48 0 217 0 C217 9.57 217 19.14 217 29 C205.78 29 194.56 29 183 29 C183 66.62 183 104.24 183 143 C172.11 143 161.22 143 150 143 C150 105.38 150 67.76 150 29 C140.76 29 131.52 29 122 29 C122 66.62 122 104.24 122 143 C110.78 143 99.56 143 88 143 C80.55492778 134.58080619 80.55492778 134.58080619 79.1875 130.4375 C76.88658276 124.34006932 73.46886736 119.30075631 69.8125 113.9375 C68.52719069 111.98574009 67.24600152 110.03126125 65.96875 108.07421875 C65.3190625 107.08212402 64.669375 106.0900293 64 105.06787109 C60.5749044 99.8139952 57.19192124 94.53333204 53.8125 89.25 C53.20833252 88.30632568 52.60416504 87.36265137 51.98168945 86.39038086 C45.94925786 76.9509281 39.98223278 67.47186856 34 58 C33.67 86.05 33.34 114.1 33 143 C22.11 143 11.22 143 0 143 C0 95.81 0 48.62 0 0 Z " fill="#232224" transform="translate(349,432)"/>
<path d="M0 0 C74.58823529 0 74.58823529 0 88 13 C96.99007115 23.99240518 98.84341474 36.09871778 98 50 C96.10008342 60.99437024 91.56524561 71.31190009 82.30859375 77.921875 C78.30056112 80.50494796 74.27479202 82.88985366 70 85 C70.83402344 85.95519531 71.66804688 86.91039062 72.52734375 87.89453125 C78.35198389 94.58092277 84.11013526 101.29930464 89.69140625 108.19140625 C92.86568909 112.05318183 96.12603815 115.83859063 99.40063477 119.61547852 C104.04688971 124.99446466 108.49189595 130.49009505 113 136 C113.33 91.12 113.66 46.24 114 0 C125.22 0 136.44 0 148 0 C148 47.19 148 94.38 148 143 C136.223125 143.33 124.44625 143.66 112.3125 144 C108.61973877 144.14566406 104.92697754 144.29132813 101.12231445 144.44140625 C76.39859422 145.00939278 76.39859422 145.00939278 69.9230957 139.57373047 C66.97510909 136.34534715 64.84846598 132.89522343 62.97547913 128.95756531 C61.5186867 126.03411339 59.59747144 123.67440761 57.5625 121.125 C56.86769531 120.18527344 56.17289063 119.24554687 55.45703125 118.27734375 C51.71742482 113.24909996 47.82677891 108.33479146 43.95922852 103.40478516 C43.39002686 102.67694824 42.8208252 101.94911133 42.234375 101.19921875 C41.73131836 100.55815186 41.22826172 99.91708496 40.70996094 99.2565918 C38.4083464 96.21920985 36.21505282 93.10107395 34 90 C33.67 107.49 33.34 124.98 33 143 C22.11 143 11.22 143 0 143 C0 95.81 0 48.62 0 0 Z M33 27 C33 38.88 33 50.76 33 63 C47.40673637 63.82156747 47.40673637 63.82156747 58.8125 57.75 C62.53155158 53.07462087 63.22573921 48.77730782 62.875 42.9375 C62.17334249 37.50584538 60.11801297 34.11801297 56.25 30.25 C48.74013759 26.07785421 41.64038463 27 33 27 Z " fill="#232224" transform="translate(190,432)"/>
<path d="M0 0 C0 -2.31 0 -4.62 0 -7 C33 -7 66 -7 100 -7 C100 2.57 100 12.14 100 22 C88.78 22 77.56 22 66 22 C66 59.62 66 97.24 66 136 C55.44 136 44.88 136 34 136 C34 98.38 34 60.76 34 22 C22.78 22 11.56 22 0 22 C-0.33 21.67 -0.66 21.34 -1 21 C-2.65 23.97 -4.3 26.94 -6 30 C-10.72726482 28.13168762 -15.39286077 26.12832388 -20.0625 24.12109375 C-25.21449774 22.15483929 -29.93213834 21.79283925 -35.4375 21.6875 C-36.71496094 21.65011719 -37.99242187 21.61273438 -39.30859375 21.57421875 C-43.61237259 22.07063345 -45.67197502 23.27974394 -49 26 C-51.4915904 29.7373856 -51.45793285 31.57331583 -51 36 C-48.23893585 40.18761397 -45.21605852 42.37514445 -40.875 44.8125 C-40.27534424 45.14942871 -39.67568848 45.48635742 -39.05786133 45.83349609 C-34.06474236 48.57085983 -28.91155641 50.86815995 -23.6875 53.125 C-17.33335245 55.87619168 -11.450101 58.65524077 -6 63 C-4.85144531 63.90685547 -4.85144531 63.90685547 -3.6796875 64.83203125 C4.70764717 71.84915778 9.94383365 78.94432319 11 90 C11.94699034 103.19610453 8.70941663 113.40349554 0.4375 123.6875 C-8.41271459 133.20065201 -23.18959122 138.0257408 -35.9375 138.49609375 C-38.29174732 138.49739877 -40.64609677 138.47777097 -43 138.4375 C-44.75183594 138.44813477 -44.75183594 138.44813477 -46.5390625 138.45898438 C-57.98794135 138.37648137 -68.5375524 136.29592059 -78.8125 131.1875 C-79.53171631 130.8378418 -80.25093262 130.48818359 -80.99194336 130.12792969 C-92.07083773 124.61428836 -92.07083773 124.61428836 -95 121 C-95 116.52222924 -94.1853469 115.13254658 -91.9375 111.359375 C-91.30585937 110.28945313 -90.67421875 109.21953125 -90.0234375 108.1171875 C-89.02183594 106.45042969 -89.02183594 106.45042969 -88 104.75 C-87.33226562 103.62335938 -86.66453125 102.49671875 -85.9765625 101.3359375 C-84.32541776 98.55257922 -82.66633997 95.77427878 -81 93 C-77.60754143 94.31191369 -74.82742901 95.68517948 -71.875 97.8125 C-60.45504378 105.60404204 -49.69100028 108.05873201 -36 107 C-32.19081622 105.93143536 -28.99927302 104.59619849 -26.81640625 101.109375 C-25.96632296 98.91298754 -25.7316886 97.34385919 -25.75 95 C-25.74484375 94.34 -25.7396875 93.68 -25.734375 93 C-26.16565173 89.75273989 -27.26626849 87.62962439 -29.76196289 85.48803711 C-36.65731377 81.0000641 -43.89801793 77.61113306 -51.38476562 74.23242188 C-65.19994648 67.83701751 -75.90443202 60.20016212 -82 46 C-82.36867188 45.21238281 -82.73734375 44.42476563 -83.1171875 43.61328125 C-85.91434114 35.3332114 -84.6425825 24.85553379 -81 17 C-73.81428885 4.26434934 -63.48195552 -2.88558755 -50.07421875 -8.1484375 C-33.96269553 -12.6113499 -14.52179772 -7.26089886 0 0 Z " fill="#232425" transform="translate(883,439)"/>
<path d="M0 0 C10.89 0 21.78 0 33 0 C41.99463135 10.52859948 41.99463135 10.52859948 44.04296875 15.5390625 C47.0188754 22.26870429 50.81415738 28.19344856 54.875 34.3125 C56.22246983 36.40907225 57.56619905 38.50805313 58.90625 40.609375 C61.67548647 44.93331717 64.44665552 49.25601466 67.21875 53.578125 C67.91500488 54.66440186 68.61125977 55.75067871 69.32861328 56.86987305 C70.63351184 58.90568293 71.93910315 60.94104906 73.24560547 62.97583008 C78.56515807 71.27695733 83.77335046 79.63736073 89 88 C89.33 58.96 89.66 29.92 90 0 C100.56 0 111.12 0 122 0 C122 47.19 122 94.38 122 143 C111.11 143 100.22 143 89 143 C81.24973517 133.99293547 81.24973517 133.99293547 79.8984375 129.91796875 C78.20520449 125.33954421 76.02015609 121.69930697 73.1875 117.75 C72.35596442 116.5266275 71.52928946 115.29993973 70.70703125 114.0703125 C70.27471191 113.42481445 69.84239258 112.77931641 69.39697266 112.11425781 C64.80933596 105.17106771 60.40911116 98.1032029 55.953125 91.07519531 C52.43913697 85.54242116 48.90734796 80.02106066 45.375 74.5 C44.70001465 73.44377441 44.0250293 72.38754883 43.32958984 71.29931641 C42.69230957 70.30335449 42.0550293 69.30739258 41.3984375 68.28125 C40.83817871 67.40533203 40.27791992 66.52941406 39.70068359 65.62695312 C37.82752927 62.73359388 35.91192491 59.86788737 34 57 C33.67 85.38 33.34 113.76 33 143 C22.11 143 11.22 143 0 143 C0 95.81 0 48.62 0 0 Z " fill="#232325" transform="translate(568,432)"/>
<path d="M0 0 C75.43734015 0 75.43734015 0 90 13 C99.26598389 22.68716497 101.43178761 33.73046646 101.36132812 46.70507812 C101.08585034 58.98758764 97.42967746 68.91629584 89 78 C72.55157047 92.43269062 54.32214356 91 33 91 C33 108.16 33 125.32 33 143 C22.11 143 11.22 143 0 143 C0 95.81 0 48.62 0 0 Z M33 27 C33 39.21 33 51.42 33 64 C49.44973022 64.41211224 49.44973022 64.41211224 62.66015625 56.52734375 C66.12266935 52.58028072 66.46141161 48.42083559 66.30078125 43.33984375 C65.7812389 39.29820907 64.59697681 36.16183648 62 33 C52.56597322 26.02401323 45.36417775 27 33 27 Z " fill="#232224" transform="translate(84,432)"/>
<path d="M0 0 C27.06 0 54.12 0 82 0 C82 9.57 82 19.14 82 29 C65.83 29 49.66 29 33 29 C33 38.24 33 47.48 33 57 C36.30902344 56.98839844 39.61804688 56.97679687 43.02734375 56.96484375 C46.21769108 56.95705419 49.40803737 56.95097686 52.59838867 56.94506836 C54.82267732 56.94002683 57.04696263 56.93319377 59.27124023 56.92456055 C62.46078309 56.91248702 65.65028229 56.90677004 68.83984375 56.90234375 C70.34139259 56.89460182 70.34139259 56.89460182 71.87327576 56.88670349 C73.25459435 56.88659019 73.25459435 56.88659019 74.66381836 56.88647461 C75.88626503 56.88314369 75.88626503 56.88314369 77.13340759 56.87974548 C79 57 79 57 80 58 C80.08767112 60.07262076 80.10695873 62.14820294 80.09765625 64.22265625 C80.09515869 65.35711182 80.09266113 66.49156738 80.09008789 67.66040039 C80.08098389 69.11309326 80.07187988 70.56578613 80.0625 72.0625 C80.041875 76.661875 80.02125 81.26125 80 86 C64.49 86 48.98 86 33 86 C33 95.24 33 104.48 33 114 C49.17 114 65.34 114 82 114 C82 123.57 82 133.14 82 143 C54.94 143 27.88 143 0 143 C0 95.81 0 48.62 0 0 Z " fill="#232526" transform="translate(702,432)"/>
<path d="M0 0 C21.19847193 -0.54981627 21.19847193 -0.54981627 28 4.6875 C32.32927608 8.90472423 33.05095937 13.58301352 33.3125 19.4375 C33.13010651 25.73543995 31.63671935 30.24909092 27.3125 34.875 C19.79565012 39.69713011 10.8263568 40.0527624 2.16796875 38.48828125 C1.45253906 38.32714844 0.73710938 38.16601562 0 38 C0 37.34 0 36.68 0 36 C0.99 35.34 1.98 34.68 3 34 C4.12794554 30.29366228 4.1166344 26.6767831 4.09765625 22.82421875 C4.09443359 21.66728516 4.09121094 20.51035156 4.08789062 19.31835938 C4.07951172 18.12017578 4.07113281 16.92199219 4.0625 15.6875 C4.05798828 14.46998047 4.05347656 13.25246094 4.04882812 11.99804688 C4.03706578 8.99864774 4.02062826 5.99934911 4 3 C2.35 2.67 0.7 2.34 -1 2 C-0.67 1.34 -0.34 0.68 0 0 Z M10 3 C9.97534496 7.39656173 9.95716158 11.7930872 9.94506836 16.18969727 C9.94002879 17.68644918 9.93319713 19.18319616 9.92456055 20.67993164 C9.91247841 22.82699807 9.90676809 24.97399962 9.90234375 27.12109375 C9.89710693 28.4145874 9.89187012 29.70808105 9.88647461 31.04077148 C9.66003068 33.88652404 9.66003068 33.88652404 11 35 C15.49516871 35.25933666 19.02065669 35.21074629 23 33 C27.24241933 28.45455072 27.29390393 23.49980746 27.21484375 17.53515625 C26.79939529 12.63286445 25.19124635 9.33139298 21.875 5.625 C19.00546571 4.00308932 17.52183514 3.69369546 14.3203125 3.3984375 C13.51094238 3.32028809 12.70157227 3.24213867 11.86767578 3.16162109 C11.25134277 3.10828613 10.63500977 3.05495117 10 3 Z " fill="#000000" transform="translate(857,594)"/>
<path d="M0 0 C0.33 0.66 0.66 1.32 1 2 C1.66 1.34 2.32 0.68 3 0 C9.98221191 -0.80123743 9.98221191 -0.80123743 13.9375 2.3125 C17.45391959 6.89450128 17.68903548 11.4111567 17 17 C14.79644904 21.32548892 12.22042631 24.56153147 8 27 C4.9165253 27.32184416 2.11529748 27.18598791 -1 27 C-1 30.63 -1 34.26 -1 38 C0.32 38.33 1.64 38.66 3 39 C3.33 39.66 3.66 40.32 4 41 C-0.62 41 -5.24 41 -10 41 C-10 40.01 -10 39.02 -10 38 C-9.01 37.505 -9.01 37.505 -8 37 C-6.68745536 33.46952495 -6.79415206 29.77426942 -6.68359375 26.046875 C-6.66281265 25.38665344 -6.64203156 24.72643188 -6.62062073 24.04620361 C-6.55549853 21.94756985 -6.49641498 19.84881628 -6.4375 17.75 C-6.39427921 16.32290453 -6.3506638 14.89582095 -6.30664062 13.46875 C-6.19985589 9.97929278 -6.09848434 6.48970247 -6 3 C-7.65 3 -9.3 3 -11 3 C-8.21756596 -1.17365106 -4.53441502 -0.22300402 0 0 Z M0.6875 5.75 C-1.84422809 10.62592077 -1.68606234 15.59925341 -1 21 C1.7865517 23.7865517 4.15424427 23.65662895 8 24 C8.66 23.67 9.32 23.34 10 23 C11.84910419 17.45268744 11.85354933 11.2911061 9.8125 5.8125 C8.11726821 3.8095535 8.11726821 3.8095535 5.5625 3.375 C2.88096978 3.84925463 2.88096978 3.84925463 0.6875 5.75 Z " fill="#000000" transform="translate(938,606)"/>
<path d="M0 0 C2.5625 1.5 2.5625 1.5 4 4 C4.59373683 6.70537476 4.81456455 9.21846826 5 12 C1.73774826 12.97403725 -1.22738661 13.13415799 -4.625 13.125 C-6.06746094 13.12886719 -6.06746094 13.12886719 -7.5390625 13.1328125 C-10 13 -10 13 -12 12 C-11.34 14.97 -10.68 17.94 -10 21 C-4.38752665 22.20422946 -4.38752665 22.20422946 0.875 20.5625 C1.57625 20.046875 2.2775 19.53125 3 19 C3.66 19 4.32 19 5 19 C3.71872222 22.9506065 2.5541693 24.83388631 -1 27 C-5.69115039 27.84669544 -9.76325632 27.64413734 -14 25.4375 C-17.56598741 21.09145284 -18.24107122 16.8552405 -17.8125 11.375 C-17.26851026 7.66195378 -16.42092448 4.9589077 -14 2 C-9.56592415 -0.73386376 -5.05756872 -0.65638995 0 0 Z M-11 4 C-11.73343428 7.06556598 -11.73343428 7.06556598 -12 10 C-8.37 10 -4.74 10 -1 10 C-2.02880095 5.43990481 -2.02880095 5.43990481 -5.4375 2.5 C-8.22774618 1.64354576 -8.22774618 1.64354576 -11 4 Z " fill="#000000" transform="translate(916,606)"/>
<path d="M0 0 C0 1.98 0 3.96 0 6 C2.31 6 4.62 6 7 6 C7 6.99 7 7.98 7 9 C4.36 9.33 1.72 9.66 -1 10 C-0.88534579 12.22972273 -0.75785234 14.45878753 -0.625 16.6875 C-0.55539062 17.92886719 -0.48578125 19.17023437 -0.4140625 20.44921875 C-0.03577906 23.69317772 0.61979976 26.06567185 2 29 C3.98 28.67 5.96 28.34 8 28 C6.25 31.875 6.25 31.875 4 33 C-2.36094129 33.46261391 -2.36094129 33.46261391 -4.69067383 31.77612305 C-6.35568317 29.51750978 -6.42287606 28.12169187 -6.51171875 25.33203125 C-6.54716797 24.43935547 -6.58261719 23.54667969 -6.61914062 22.62695312 C-6.64169922 21.69818359 -6.66425781 20.76941406 -6.6875 19.8125 C-6.72166016 18.87212891 -6.75582031 17.93175781 -6.79101562 16.96289062 C-6.87348218 14.64204607 -6.94263403 12.32157852 -7 10 C-7.66 9.67 -8.32 9.34 -9 9 C-9 8.01 -9 7.02 -9 6 C-8.01 6 -7.02 6 -6 6 C-5.87625 5.195625 -5.7525 4.39125 -5.625 3.5625 C-5.41875 2.716875 -5.2125 1.87125 -5 1 C-3 0 -3 0 0 0 Z " fill="#000000" transform="translate(971,600)"/>
<path d="M0 0 C1.4540625 0.0309375 1.4540625 0.0309375 2.9375 0.0625 C3.5625 1.875 3.5625 1.875 3.9375 4.0625 C2.9475 5.5475 2.9475 5.5475 1.9375 7.0625 C0.2875 6.7325 -1.3625 6.4025 -3.0625 6.0625 C-3.44468767 4.40635343 -3.77645102 2.73792976 -4.0625 1.0625 C-3.0625 0.0625 -3.0625 0.0625 0 0 Z " fill="#000000" transform="translate(990.0625,625.9375)"/>
</svg>
