<?xml version="1.0" encoding="UTF-8"?>
<svg version="1.1" xmlns="http://www.w3.org/2000/svg" width="1080" height="1080">
<path d="M0 0 C154.44 0 308.88 0 468 0 C468 60.72 468 121.44 468 184 C313.56 184 159.12 184 0 184 C0 123.28 0 62.56 0 0 Z " fill="#506FFD" transform="translate(513,416)"/>
<path d="M0 0 C0.33 -2.97 0.66 -5.94 1 -9 C13.87 -9 26.74 -9 40 -9 C40 12.45 40 33.9 40 56 C56.83 56 73.66 56 91 56 C91 34.55 91 13.1 91 -9 C103.87 -9 116.74 -9 130 -9 C130 45.12 130 99.24 130 155 C117.13 155 104.26 155 91 155 C91 133.55 91 112.1 91 90 C74.17 90 57.34 90 40 90 C40 111.45 40 132.9 40 155 C27.13 155 14.26 155 1 155 C0.67 152.03 0.34 149.06 0 146 C-0.83660156 146.45890625 -1.67320312 146.9178125 -2.53515625 147.390625 C-24.54771765 158.99414574 -52.19451916 162.38642212 -76.27734375 155.26171875 C-100.1905683 147.15681683 -120.43337369 131.87226208 -132 109 C-134.98753362 102.28359357 -137.78376124 95.26947305 -139 88 C-139.33 88.66 -139.66 89.32 -140 90 C-157.82 90 -175.64 90 -194 90 C-194 100.56 -194 111.12 -194 122 C-175.52 122 -157.04 122 -138 122 C-138 132.89 -138 143.78 -138 155 C-169.02 155 -200.04 155 -232 155 C-232 112.1 -232 69.2 -232 25 C-244.21 25 -256.42 25 -269 25 C-269 67.9 -269 110.8 -269 155 C-281.54 155 -294.08 155 -307 155 C-307 112.1 -307 69.2 -307 25 C-319.87 25 -332.74 25 -346 25 C-346 13.78 -346 2.56 -346 -9 C-277.36 -9 -208.72 -9 -138 -9 C-138 2.22 -138 13.44 -138 25 C-156.48 25 -174.96 25 -194 25 C-194 35.23 -194 45.46 -194 56 C-176.18 56 -158.36 56 -140 56 C-139.67 56.99 -139.34 57.98 -139 59 C-138.87625 58.319375 -138.7525 57.63875 -138.625 56.9375 C-135.81717669 43.74073045 -129.34561966 31.55257241 -121 21 C-120.12988281 19.88431641 -120.12988281 19.88431641 -119.2421875 18.74609375 C-105.28479551 1.95634398 -83.76016916 -8.73020375 -62.265625 -11.71875 C-40.21670992 -13.61769962 -19.72195904 -10.14789929 0 0 Z M0 10 C-1.79228299 13.41634371 -3.58371873 16.83313098 -5.375 20.25 C-6.13683594 21.70212891 -6.13683594 21.70212891 -6.9140625 23.18359375 C-7.40390625 24.11816406 -7.89375 25.05273438 -8.3984375 26.015625 C-9.07398682 27.30388184 -9.07398682 27.30388184 -9.76318359 28.61816406 C-10.86279615 30.7357756 -11.93985977 32.86241112 -13 35 C-13.72703125 34.60167969 -14.4540625 34.20335937 -15.203125 33.79296875 C-30.49448416 25.73559873 -46.84388479 23.172734 -63.6875 27.75 C-65.80620955 28.45787512 -67.9132112 29.20292417 -70 30 C-70.76570313 30.28875 -71.53140625 30.5775 -72.3203125 30.875 C-84.1609773 36.07560572 -91.75847491 46.84744708 -96.375 58.5625 C-100.21595531 70.26748019 -99.63878467 81.93249789 -94.4375 93.1875 C-87.76521172 105.44701998 -77.28168712 114.57277096 -64 119 C-45.44376666 123.53596815 -28.39223914 120.31377224 -12 111 C-11.77570313 111.77601563 -11.55140625 112.55203125 -11.3203125 113.3515625 C-9.554359 118.23144584 -7.22766941 122.75533262 -4.875 127.375 C-4.40707031 128.30183594 -3.93914062 129.22867188 -3.45703125 130.18359375 C-2.30830944 132.45759406 -1.15588119 134.72963282 0 137 C0.33 137 0.66 137 1 137 C1 95.09 1 53.18 1 10 C0.67 10 0.34 10 0 10 Z " fill="#232224" transform="translate(380,434)"/>
<path d="M0 0 C1.10730469 -0.01160156 2.21460938 -0.02320313 3.35546875 -0.03515625 C10.73907527 -0.00912708 17.12205678 1.07188542 24.125 3.375 C25.34574219 3.76042969 26.56648437 4.14585937 27.82421875 4.54296875 C28.81035156 4.87941406 29.79648437 5.21585937 30.8125 5.5625 C32.33423828 6.07876953 32.33423828 6.07876953 33.88671875 6.60546875 C34.62535156 6.85941406 35.36398437 7.11335938 36.125 7.375 C36.455 5.725 36.785 4.075 37.125 2.375 C75.075 2.375 113.025 2.375 152.125 2.375 C152.125 13.265 152.125 24.155 152.125 35.375 C139.255 35.375 126.385 35.375 113.125 35.375 C113.125 78.605 113.125 121.835 113.125 166.375 C100.915 166.375 88.705 166.375 76.125 166.375 C76.125 123.145 76.125 79.915 76.125 35.375 C63.915 35.375 51.705 35.375 39.125 35.375 C38.135 38.345 38.135 38.345 37.125 41.375 C36.465 42.365 35.805 43.355 35.125 44.375 C32.24036569 43.7501011 30.37994823 42.98215452 27.6875 41.5625 C19.11463937 37.26031075 10.76261242 35.01633312 1.1875 34.9375 C0.47795166 34.92750977 -0.23159668 34.91751953 -0.96264648 34.90722656 C-5.64753395 34.98478175 -8.90435687 35.90581129 -12.875 38.375 C-15.65229405 41.59081416 -16.76226391 43.67353102 -17.4375 47.875 C-16.74997923 52.15290704 -14.86380093 54.40874661 -11.875 57.375 C-9.10339989 59.43263431 -9.10339989 59.43263431 -5.9375 61.125 C-5.35049316 61.45371094 -4.76348633 61.78242188 -4.15869141 62.12109375 C1.49393052 65.20147926 7.36782049 67.76970102 13.25 70.375 C21.49769311 74.03606902 28.95164861 77.83460665 36.125 83.375 C36.86621094 83.93574219 37.60742188 84.49648438 38.37109375 85.07421875 C43.71472552 89.40771219 47.5789686 94.50247181 51.125 100.375 C51.48851562 100.97570312 51.85203125 101.57640625 52.2265625 102.1953125 C57.12388694 112.40188586 54.66546853 128.15289536 51.125 138.375 C45.89247486 150.55251304 38.09354632 157.79587741 26.125 163.375 C6.05563568 170.92537919 -15.42969545 171.88854835 -35.875 165.375 C-36.8340625 165.08625 -37.793125 164.7975 -38.78125 164.5 C-44.38013629 162.65566099 -49.54695253 160.11483897 -54.75 157.375 C-55.38107666 157.04274414 -56.01215332 156.71048828 -56.66235352 156.36816406 C-60.47531574 154.29863366 -63.4305458 152.13056336 -66.875 149.375 C-67.205 154.985 -67.535 160.595 -67.875 166.375 C-98.565 166.375 -129.255 166.375 -160.875 166.375 C-160.875 112.255 -160.875 58.135 -160.875 2.375 C-130.185 2.375 -99.495 2.375 -67.875 2.375 C-67.875 13.265 -67.875 24.155 -67.875 35.375 C-86.355 35.375 -104.835 35.375 -123.875 35.375 C-123.875 46.265 -123.875 57.155 -123.875 68.375 C-106.055 68.375 -88.235 68.375 -69.875 68.375 C-69.875 79.265 -69.875 90.155 -69.875 101.375 C-87.695 101.375 -105.515 101.375 -123.875 101.375 C-123.875 111.935 -123.875 122.495 -123.875 133.375 C-105.065 133.375 -86.255 133.375 -66.875 133.375 C-66.38 137.83 -66.38 137.83 -65.875 142.375 C-63.561494 138.41725382 -61.24936553 134.45870463 -58.9375 130.5 C-58.27814453 129.37207031 -57.61878906 128.24414062 -56.93945312 127.08203125 C-55.99682617 125.46748047 -55.99682617 125.46748047 -55.03515625 123.8203125 C-54.16322632 122.32781982 -54.16322632 122.32781982 -53.27368164 120.80517578 C-52.43600531 119.34973326 -51.62600127 117.87700255 -50.875 116.375 C-47.73547586 117.85454586 -44.94190938 119.62962458 -42.0625 121.5625 C-37.51219454 124.48375936 -32.88729283 126.95958752 -28 129.25 C-27.36989014 129.54801514 -26.73978027 129.84603027 -26.09057617 130.15307617 C-17.17539477 134.23479703 -5.66999837 135.12854797 3.91015625 132.65625 C6.81506529 131.30967534 8.93990157 129.57166709 11.125 127.25 C12.94535622 122.01647587 12.70970393 116.71381574 11.375 111.375 C9.84307735 108.92392376 8.71840451 108.61185446 6.125 107.375 C4.1857748 106.23208884 2.24855884 105.08576671 0.3125 103.9375 C-5.1558169 100.73110846 -10.76415162 97.98785975 -16.52197266 95.33959961 C-32.88801679 87.79261138 -45.18624989 79.42882656 -52.875 62.375 C-55.888601 51.89830475 -55.15957246 38.56410962 -50.359375 28.8828125 C-48.12235376 25.10342398 -45.76935172 21.67974487 -42.875 18.375 C-42.39804687 17.79363281 -41.92109375 17.21226562 -41.4296875 16.61328125 C-30.68040655 4.59461285 -15.58296105 -0.16213485 0 0 Z " fill="#242326" transform="translate(826.875,422.625)"/>
<path d="M0 0 C12.21 0 24.42 0 37 0 C44.73580345 7.94487922 44.73580345 7.94487922 45.984375 11.8515625 C48.11221112 17.62237791 51.29309603 22.39964559 54.6875 27.5 C55.8792554 29.36577829 57.06667148 31.23433455 58.25 33.10546875 C66.20730429 45.62094285 74.17695009 58.13007094 82.25415039 70.56860352 C88.58678757 80.33266806 94.78232344 90.15534545 101 100 C101.33 67 101.66 34 102 0 C114.54 0 127.08 0 140 0 C140 54.12 140 108.24 140 164 C127.46 164 114.92 164 102 164 C93.07042294 154.37279973 93.07042294 154.37279973 91.4453125 149.84765625 C88.96253808 143.6407202 85.56564126 138.36310729 81.875 132.8125 C80.69118213 130.9570559 79.51141692 129.0990192 78.3359375 127.23828125 C75.41466537 122.64306852 72.46543462 118.06680219 69.5 113.5 C65.32177807 107.06215111 61.18264989 100.60016949 57.0625 94.125 C56.53785156 93.30064453 56.01320313 92.47628906 55.47265625 91.62695312 C49.62771366 82.43100379 43.81858533 73.21276011 38 64 C37.67 97 37.34 130 37 164 C24.79 164 12.58 164 0 164 C0 109.88 0 55.76 0 0 Z " fill="#242327" transform="translate(518,425)"/>
<path d="M0 0 C3.17625 -0.0825 6.3525 -0.165 9.625 -0.25 C10.6145166 -0.28641602 11.6040332 -0.32283203 12.62353516 -0.36035156 C18.2643431 -0.43104695 21.56974427 0.15248789 26 4 C30.06741809 9.61023185 30.6106657 15.23826522 30 22 C28.76084824 27.55179018 26.90724173 30.85433222 22 34 C19.59940183 35.20029908 18.10639351 35.11459743 15.4296875 35.09765625 C14.62257324 35.09515869 13.81545898 35.09266113 12.98388672 35.09008789 C11.9579541 35.08098389 10.93202148 35.07187988 9.875 35.0625 C4.986875 35.0315625 4.986875 35.0315625 0 35 C0 23.45 0 11.9 0 0 Z M6 5 C6 13.58 6 22.16 6 31 C14.42886335 31.36375445 14.42886335 31.36375445 21 28 C24.64353326 24.11356452 24.49356669 19.7491008 24.36328125 14.66796875 C23.83205254 10.76657942 22.60833942 8.91520288 20 6 C15.81537205 3.90768602 10.67855628 5 6 5 Z " fill="#000000" transform="translate(845,616)"/>
<path d="M0 0 C1.65 0 3.3 0 5 0 C5 0.66 5 1.32 5 2 C5.99 1.34 6.98 0.68 8 0 C11.06526351 -0.54531842 13.93408329 -0.54325893 17 0 C19.75569447 2.18159145 21.43588747 3.87177494 23 7 C23.14851844 8.93359586 23.22130833 10.87342097 23.25 12.8125 C23.27578125 13.85019531 23.3015625 14.88789062 23.328125 15.95703125 C22.87251214 20.18229817 21.16772392 22.74577802 18.3125 25.8125 C14.77683423 27.62811215 11.95350699 27.25506497 8 27 C7.34 26.67 6.68 26.34 6 26 C5.67 29.3 5.34 32.6 5 36 C3.35 36 1.7 36 0 36 C0 24.12 0 12.24 0 0 Z M7 6 C4.76009356 10.58647508 4.79367004 14.08188553 6 19 C7.04374022 21.04451019 7.04374022 21.04451019 9 22 C12 22.66666667 12 22.66666667 15 22 C17.57874144 19.24934246 18.23609237 16.66692707 18.5 13 C18.3807533 9.50209688 17.96377368 8.95424044 15.625 6 C12.13692151 3.34241639 10.55532879 3.55571146 7 6 Z " fill="#000000" transform="translate(912,625)"/>
<path d="M0 0 C3.49231218 2.7240035 4.60549748 4.14794619 5.51171875 8.40234375 C5.77800698 10.59144051 5.89986551 12.79704127 6 15 C0.06 15 -5.88 15 -12 15 C-11.67 16.98 -11.34 18.96 -11 21 C-9.54257537 21.08096803 -8.08387193 21.13917774 -6.625 21.1875 C-5.40683594 21.23970703 -5.40683594 21.23970703 -4.1640625 21.29296875 C-3.44992187 21.19628906 -2.73578125 21.09960938 -2 21 C-1.34 20.01 -0.68 19.02 0 18 C3.125 17.8125 3.125 17.8125 6 18 C2.8 25.2 2.8 25.2 -1 27 C-5.28983953 27.57949052 -8.85610501 27.47247837 -12.875 25.8125 C-16.08952098 23.07070269 -17.7609524 20.95822556 -18.28515625 16.6640625 C-18.4675495 11.38258833 -18.06025382 7.48108595 -15 3 C-10.54547145 -1.09069288 -5.76467277 -1.02483072 0 0 Z M-9.3125 4.5625 C-11.574475 6.1888038 -11.574475 6.1888038 -12 11 C-8.04 11 -4.08 11 0 11 C-0.33 9.35 -0.66 7.7 -1 6 C-5.04995792 4.26964156 -5.04995792 4.26964156 -9.3125 4.5625 Z " fill="#000000" transform="translate(899,625)"/>
<path d="M0 0 C1.98 0 3.96 0 6 0 C6 2.31 6 4.62 6 7 C7.32 7 8.64 7 10 7 C10 8.65 10 10.3 10 12 C8.68 12 7.36 12 6 12 C6 17.61 6 23.22 6 29 C7.32 29 8.64 29 10 29 C9.505 31.475 9.505 31.475 9 34 C6.1875 34.25 6.1875 34.25 3 34 C0.8894782 32.2021481 0.08658806 30.7426972 -0.23510742 27.98339844 C-0.29563766 25.56525376 -0.26116486 23.16771855 -0.1875 20.75 C-0.17396484 19.90953125 -0.16042969 19.0690625 -0.14648438 18.203125 C-0.11123464 16.13514062 -0.0574302 14.06748729 0 12 C-0.99 12 -1.98 12 -3 12 C-3 10.35 -3 8.7 -3 7 C-2.01 7 -1.02 7 0 7 C0 4.69 0 2.38 0 0 Z " fill="#000000" transform="translate(943,618)"/>
<path d="M0 0 C1.98 0 3.96 0 6 0 C6 1.98 6 3.96 6 6 C4.02 6 2.04 6 0 6 C0 4.02 0 2.04 0 0 Z " fill="#000000" transform="translate(960,645)"/>
</svg>
